<svg width="24" height="26" viewBox="0 0 24 26" fill="none" xmlns="http://www.w3.org/2000/svg">
<g id="Group">
<g id="Vector">
<path d="M12.4999 25.5001C12.2819 25.5001 11.6541 25.6466 11.4999 25.5001C11.3458 25.3535 11.4999 24.7073 11.4999 24.5001V22.5001L10.4999 23.5001C10.3456 23.6465 9.71804 23.5002 9.49992 23.5001C9.2818 23.4999 8.65404 23.6468 8.49992 23.5001C8.3458 23.3534 8.49977 23.7074 8.49992 23.5001C8.50007 23.2927 8.34558 22.6465 8.49992 22.5001L11.4999 20.5001V14.5001L5.49992 17.5001L4.49992 20.5001C4.44324 20.7002 4.6889 20.3966 4.49992 20.5001C4.31094 20.6035 3.7105 20.5539 3.49992 20.5001C3.28933 20.4462 3.60875 20.6797 3.49992 20.5001C3.39109 20.3204 3.44324 19.7002 3.49992 19.5001V18.5001L1.49992 19.5001C1.31123 19.602 1.70939 19.5541 1.49992 19.5001C1.29045 19.446 0.608448 19.6787 0.499919 19.5001C0.391391 19.3214 0.444441 18.6995 0.499919 18.5001C0.312672 18.6044 0.555398 18.3006 0.499919 18.5001L2.49992 17.5001L1.49992 16.5001C1.39565 16.4734 1.58551 16.5626 1.49992 16.5001C1.41433 16.4375 0.553805 16.589 0.499919 16.5001C0.446033 16.4111 0.513894 16.6018 0.499919 16.5001C0.485945 16.3983 0.471855 15.5992 0.499919 15.5001C0.434088 15.5814 0.527984 15.4009 0.499919 15.5001C0.565751 15.4187 1.40634 15.5513 1.49992 15.5001C1.39285 15.5133 1.59349 15.4488 1.49992 15.5001C1.39565 15.4734 1.60699 15.4868 1.49992 15.5001L4.49992 16.5001L10.4999 13.5001L4.49992 9.50005L1.49992 10.5001C1.2907 10.5496 1.68565 10.6041 1.49992 10.5001C1.31419 10.396 0.555556 10.698 0.499919 10.5001C0.444283 10.3021 0.393526 9.6783 0.499919 9.50005C0.606313 9.3218 1.29257 9.55624 1.49992 9.50005L2.49992 8.50005L0.499919 7.50005C0.405686 7.44913 0.566335 7.58148 0.499919 7.50005C0.433504 7.41863 0.528321 7.59949 0.499919 7.50005C0.471518 7.40062 0.485947 7.60223 0.499919 7.50005C0.513892 7.39788 0.445718 6.58928 0.499919 6.50005C0.41381 6.56264 0.55412 6.41083 0.499919 6.50005C0.586029 6.43747 1.39512 6.52639 1.49992 6.50005C1.39252 6.4861 1.60472 6.47372 1.49992 6.50005C1.4064 6.44795 1.60732 6.51401 1.49992 6.50005L3.49992 7.50005V6.50005C3.47001 6.40033 3.48695 5.60301 3.49992 5.50005C3.44609 5.59025 3.51289 5.39709 3.49992 5.50005C3.41359 5.56346 3.55375 5.40986 3.49992 5.50005C3.39452 5.52681 3.58625 5.43665 3.49992 5.50005C3.60532 5.4733 4.39183 5.48601 4.49992 5.50005C4.40594 5.44738 4.60801 5.5141 4.49992 5.50005C4.43467 5.41695 4.5939 5.55272 4.49992 5.50005C4.47354 5.39944 4.56517 5.58316 4.49992 5.50005L5.49992 8.50005L11.4999 11.5001V5.50005L8.49992 3.50005C8.4235 3.42752 8.54132 3.59486 8.49992 3.50005C8.45852 3.40524 8.5 2.60271 8.49992 2.50005C8.45866 2.59492 8.49984 2.3974 8.49992 2.50005C8.42361 2.57269 8.54118 2.40519 8.49992 2.50005C8.57623 2.42742 9.40017 2.5394 9.49992 2.50005C9.39192 2.50013 9.59967 2.4607 9.49992 2.50005C9.40011 2.46084 9.60792 2.49998 9.49992 2.50005C9.59973 2.53927 10.4235 2.42752 10.4999 2.50005L11.4999 3.50005V1.50005C11.4999 1.29285 11.3458 0.646566 11.4999 0.500053C11.6541 0.353541 12.2819 0.500053 12.4999 0.500053C12.3458 0.353541 12.7179 0.500053 12.4999 0.500053C12.6541 0.646566 12.4999 1.29285 12.4999 1.50005V3.50005L13.4999 2.50005C13.6543 2.35356 14.2818 2.49991 14.4999 2.50005C14.718 2.5002 15.3458 2.35336 15.4999 2.50005C15.5001 2.29274 15.654 2.64675 15.4999 2.50005C15.4998 2.70737 15.6543 3.35356 15.4999 3.50005L12.4999 5.50005V11.5001L18.4999 8.50005L19.4999 5.50005C19.3109 5.60349 19.5566 5.2999 19.4999 5.50005C19.6889 5.39662 20.2893 5.44618 20.4999 5.50005C20.3911 5.32043 20.7105 5.55393 20.4999 5.50005C20.6087 5.67968 20.5566 6.2999 20.4999 6.50005V7.50005L22.4999 6.50005C22.2905 6.446 22.6886 6.39809 22.4999 6.50005C22.7094 6.55411 23.3914 6.32139 23.4999 6.50005C23.6084 6.67872 23.5554 7.3006 23.4999 7.50005C23.4444 7.6995 23.6872 7.39572 23.4999 7.50005L21.4999 8.50005L22.4999 9.50005C22.7105 9.55393 23.3911 9.32043 23.4999 9.50005C23.6087 9.67968 23.5566 10.2999 23.4999 10.5001C23.4432 10.7002 22.6889 10.3966 22.4999 10.5001C22.3109 10.6035 22.7105 10.5539 22.4999 10.5001L19.4999 9.50005L13.4999 13.5001L19.4999 16.5001L22.4999 15.5001C22.3111 15.3965 22.7105 15.4464 22.4999 15.5001C22.6887 15.6036 23.4435 15.2999 23.4999 15.5001C23.5564 15.7002 23.6089 16.3206 23.4999 16.5001C23.3909 16.6795 22.7105 16.4464 22.4999 16.5001L21.4999 17.5001L23.4999 18.5001C23.4444 18.3006 23.6872 18.6044 23.4999 18.5001C23.5554 18.6995 23.6084 19.3214 23.4999 19.5001C23.3914 19.6787 22.7094 19.446 22.4999 19.5001C22.2905 19.5541 22.6886 19.602 22.4999 19.5001L20.4999 18.5001V19.5001C20.5298 19.5998 20.5129 20.3971 20.4999 20.5001C20.4869 20.603 20.5538 20.4099 20.4999 20.5001C20.4461 20.5902 20.5862 20.4367 20.4999 20.5001C20.4136 20.5635 20.6053 20.4733 20.4999 20.5001C20.3945 20.5268 19.608 20.5141 19.4999 20.5001C19.3918 20.486 19.5939 20.5527 19.4999 20.5001C19.4059 20.4474 19.5652 20.5832 19.4999 20.5001C19.4347 20.417 19.5263 20.6007 19.4999 20.5001L18.4999 17.5001L12.4999 14.5001V20.5001L15.4999 22.5001C15.6543 22.6465 15.4998 23.2927 15.4999 23.5001C15.5001 23.7074 15.654 23.3534 15.4999 23.5001C15.3458 23.6468 14.718 23.4999 14.4999 23.5001C14.2818 23.5002 13.6543 23.6465 13.4999 23.5001L12.4999 22.5001V24.5001C12.4999 24.7073 12.6541 25.3535 12.4999 25.5001C12.7179 25.5001 12.3458 25.6466 12.4999 25.5001Z" fill="#484848"/>
</g>
</g>
</svg>
