<svg width="28" height="28" viewBox="0 0 28 28" fill="none" xmlns="http://www.w3.org/2000/svg">
<g id="balcony 1" clip-path="url(#clip0_1955_5739)">
<g id="Vector">
<path d="M23 9C23 4.02451 18.9755 0 14 0C9.02451 0 5 4.02451 5 9V15H0V16H2V28H26C26 26.7266 26 17.1299 26 16H28V15H23V9ZM20 23V16H21V23H20ZM8 16V23H7V16H8ZM14 5C14.816 6.95956 16.1178 8.79581 18 10V15H10V10C11.7876 8.85648 13.141 7.06296 14 5ZM10 16H12V23H10V16ZM13 16H15V23H13V16ZM16 16H18V23H16V16ZM20 15V11C20.53 11.2213 20.438 10.8669 21 11V15H20ZM21 9V10C17.421 8.99683 15.3529 5.71426 15 2C18.6662 2.42831 21 5.22058 21 9ZM13 2C12.6471 5.71426 10.579 8.99661 7 10V9C7 5.22058 9.3338 2.42831 13 2ZM7 11C7.56204 10.8669 7.47 11.2213 8 11V15H7V11ZM3 16H5V23H3V16ZM25 26H3V25H25V26ZM25 23H23V16H25V23Z" fill="#484848"/>
</g>
</g>
<defs>
<clipPath id="clip0_1955_5739">
<rect width="28" height="28" fill="white"/>
</clipPath>
</defs>
</svg>
