<svg width="35" height="34" viewBox="0 0 35 34" fill="none" xmlns="http://www.w3.org/2000/svg">
<g id="Vector">
<path d="M32.1668 13H9.16684V7C9.16684 5.02621 10.2917 4 12.1668 4C14.0419 4 15.1668 5.02621 15.1668 7H19.1668C19.1668 3.05242 15.917 0 12.1668 0C8.41664 0 5.16684 3.05242 5.16684 7V13H2.16684C1.71597 13 0.485652 12.6644 0.166841 13C-0.151971 13.3356 0.166841 13.5254 0.166841 14V18C0.166841 22.6634 3.21264 26.5201 7.16684 28V34H10.1668V29H24.1668V34H27.1668V28C31.121 26.5201 34.1668 22.6634 34.1668 18V14C34.1668 13.5254 34.4857 13.3356 34.1668 13C33.848 12.6644 32.6177 13 32.1668 13ZM31.1668 18C31.1668 21.9476 27.917 25 24.1668 25H10.1668C6.41664 25 3.16684 21.9476 3.16684 18V16H31.1668V18Z" fill="#484848"/>
</g>
</svg>
