<svg width="255" height="36" viewBox="0 0 255 36" fill="none" xmlns="http://www.w3.org/2000/svg">
<path d="M12 24C18.6274 24 24 18.6274 24 12C24 5.37258 18.6274 0 12 0C5.37258 0 0 5.37258 0 12C0 18.6274 5.37258 24 12 24Z" fill="#FFDD67"/>
<path d="M6.0001 15.5998C8.43015 15.5998 10.4001 13.6299 10.4001 11.1998C10.4001 8.76975 8.43015 6.7998 6.0001 6.7998C3.57004 6.7998 1.6001 8.76975 1.6001 11.1998C1.6001 13.6299 3.57004 15.5998 6.0001 15.5998Z" fill="white"/>
<path d="M17.9999 15.5998C20.4299 15.5998 22.3999 13.6299 22.3999 11.1998C22.3999 8.76975 20.4299 6.7998 17.9999 6.7998C15.5698 6.7998 13.5999 8.76975 13.5999 11.1998C13.5999 13.6299 15.5698 15.5998 17.9999 15.5998Z" fill="white"/>
<path d="M13.6001 9.99999C12.8801 9.47999 11.1201 9.47999 10.4001 9.99999C9.9601 9.59999 10.0401 9.15999 9.6001 8.75999C10.8401 7.83999 12.9601 7.67999 14.4001 8.75999C13.9601 9.15999 14.0401 9.59999 13.6001 9.99999Z" fill="#494949"/>
<path d="M18 6C15.12 6 12.8 8.32 12.8 11.2C12.8 14.08 15.12 16.4 18 16.4C20.88 16.4 23.2 14.08 23.2 11.2C23.2 8.32 20.88 6 18 6ZM18 15.2C15.8 15.2 14 13.4 14 11.2C14 9 15.8 7.2 18 7.2C20.2 7.2 22 9 22 11.2C22 13.4 20.2 15.2 18 15.2ZM6.00005 6C3.12005 6 0.800049 8.32 0.800049 11.2C0.800049 14.08 3.12005 16.4 6.00005 16.4C8.88005 16.4 11.2 14.08 11.2 11.2C11.2 8.32 8.88005 6 6.00005 6ZM6.00005 15.2C3.80005 15.2 2.00005 13.4 2.00005 11.2C2.00005 9 3.80005 7.2 6.00005 7.2C8.20005 7.2 10 9 10 11.2C10 13.4 8.20005 15.2 6.00005 15.2Z" fill="#494949"/>
<path d="M7.2001 13.4004C8.08375 13.4004 8.8001 12.505 8.8001 11.4004C8.8001 10.2958 8.08375 9.40039 7.2001 9.40039C6.31644 9.40039 5.6001 10.2958 5.6001 11.4004C5.6001 12.505 6.31644 13.4004 7.2001 13.4004Z" fill="#664E27"/>
<path d="M16.8002 13.4004C17.6839 13.4004 18.4002 12.505 18.4002 11.4004C18.4002 10.2958 17.6839 9.40039 16.8002 9.40039C15.9165 9.40039 15.2002 10.2958 15.2002 11.4004C15.2002 12.505 15.9165 13.4004 16.8002 13.4004Z" fill="#664E27"/>
<path d="M9.88014 19.7207C12.2001 20.3207 14.6801 19.8807 16.6401 18.5207C17.1201 18.1607 16.2001 16.9207 15.7201 17.2407C14.4401 18.1607 12.3601 18.7607 10.2401 18.2007C9.72014 18.0807 9.28014 19.5607 9.88014 19.7207Z" fill="#664E27"/>
<path d="M20.48 5.48045C19.2 4.40045 17.48 3.92045 15.8 4.24045C15.56 4.28045 15.36 3.44045 15.64 3.36045C17.56 3.00045 19.56 3.56045 21.04 4.80045C21.28 5.00045 20.64 5.64045 20.48 5.48045ZM8.19998 4.16045C6.51998 3.88045 4.79998 4.32045 3.51998 5.40045C3.35998 5.56045 2.71998 4.92045 2.95998 4.72045C4.43998 3.44045 6.43998 2.92045 8.35998 3.28045C8.63998 3.36045 8.43998 4.20045 8.19998 4.16045Z" fill="#917524"/>
</svg>
