<svg width="31" height="30" viewBox="0 0 31 30" fill="none" xmlns="http://www.w3.org/2000/svg">
<g id="user-round">
<path id="Vector (Stroke)" fill-rule="evenodd" clip-rule="evenodd" d="M15.3328 5C12.5713 5 10.3328 7.23858 10.3328 10C10.3328 12.7614 12.5713 15 15.3328 15C18.0942 15 20.3328 12.7614 20.3328 10C20.3328 7.23858 18.0942 5 15.3328 5ZM7.83276 10C7.83276 5.85786 11.1906 2.5 15.3328 2.5C19.4749 2.5 22.8328 5.85786 22.8328 10C22.8328 14.1421 19.4749 17.5 15.3328 17.5C11.1906 17.5 7.83276 14.1421 7.83276 10Z" fill="#484848"/>
<path id="Vector (Stroke)_2" fill-rule="evenodd" clip-rule="evenodd" d="M7.37781 18.295C9.4876 16.1853 12.3491 15 15.3328 15C18.3164 15 21.1779 16.1853 23.2877 18.295C25.3975 20.4048 26.5828 23.2663 26.5828 26.25C26.5828 26.9404 26.0231 27.5 25.3328 27.5C24.6424 27.5 24.0828 26.9404 24.0828 26.25C24.0828 23.9294 23.1609 21.7038 21.5199 20.0628C19.879 18.4219 17.6534 17.5 15.3328 17.5C13.0121 17.5 10.7865 18.4219 9.14558 20.0628C7.50464 21.7038 6.58276 23.9294 6.58276 26.25C6.58276 26.9404 6.02312 27.5 5.33276 27.5C4.64241 27.5 4.08276 26.9404 4.08276 26.25C4.08276 23.2663 5.26803 20.4048 7.37781 18.295Z" fill="#484848"/>
</g>
</svg>
