<svg width="87" height="64" viewBox="0 0 87 64" fill="none" xmlns="http://www.w3.org/2000/svg">
<g id="Group">
<path id="Vector" d="M1.76561 63.9434H75.5559C78.9468 63.9434 82.3696 64.0709 85.7541 63.9434C85.7987 63.9434 85.8497 63.9434 85.8943 63.9434C87.1245 63.9434 87.1245 62.0313 85.8943 62.0313H12.1104C8.7195 62.0313 5.29673 61.9038 1.91221 62.0313C1.86759 62.0313 1.8166 62.0313 1.77198 62.0313C0.541826 62.0313 0.541826 63.9434 1.77198 63.9434H1.76561Z" fill="#666666"/>
<path id="Vector_2" d="M7.18355 62.6684V22.3026C7.18355 21.6206 7.11344 20.8876 7.20267 20.212C7.40026 18.7588 8.65591 17.7645 10.0773 17.7326C10.4852 17.7262 10.8868 17.7326 11.2947 17.7326H17.7132C21.5248 17.7326 25.3491 17.6433 29.1607 17.7326C31.0728 17.7772 32.0416 19.3005 32.0416 21.047V62.6684C32.0416 63.8985 33.9538 63.8985 33.9538 62.6684V21.7991C33.9538 20.5817 33.9729 19.428 33.3674 18.3062C32.5324 16.7638 30.8944 15.8587 29.167 15.8204C28.7973 15.814 28.4213 15.8204 28.0516 15.8204H21.5885C17.7451 15.8204 13.8889 15.7312 10.0518 15.8204C7.30465 15.8842 5.29051 18.064 5.27139 20.7793C5.26501 21.7609 5.27139 22.7361 5.27139 23.7176V62.6684C5.27139 63.8985 7.18355 63.8985 7.18355 62.6684Z" fill="#666666"/>
<path id="Vector_3" d="M18.6563 62.6682V29.1735C18.6563 28.67 18.6181 28.1537 18.6563 27.6502C18.7583 26.3181 20.4729 26.6623 21.4098 26.6623C22.9077 26.6623 24.4502 26.5539 25.9417 26.6623C26.8659 26.7324 26.9423 27.4271 26.9423 28.1474V45.6245C26.9423 51.2017 26.8531 56.7915 26.9423 62.3751C26.9423 62.477 26.9423 62.579 26.9423 62.6746C26.9423 63.9048 28.8545 63.9048 28.8545 62.6746V28.5744C28.8545 27.8988 28.8991 27.2168 28.6505 26.5794C27.8793 24.6162 25.9162 24.7565 24.1888 24.7565C22.6719 24.7565 21.1485 24.6991 19.6315 24.7565C17.9106 24.8202 16.7633 26.1268 16.7442 27.8095C16.674 33.4823 16.7442 39.1614 16.7442 44.8341C16.7442 50.5069 16.6485 56.5366 16.7442 62.3814C16.7442 62.4834 16.7442 62.5854 16.7442 62.681C16.7442 63.9111 18.6563 63.9111 18.6563 62.681V62.6682Z" fill="#666666"/>
<path id="Vector_4" d="M18.3377 50.5582H27.2611C28.4912 50.5582 28.4912 48.646 27.2611 48.646H18.3377C17.1075 48.646 17.1075 50.5582 18.3377 50.5582Z" fill="#666666"/>
<path id="Vector_5" d="M21.0085 17.4523C24.5268 13.4113 28.0452 9.37027 31.5636 5.32924C32.9977 3.68478 34.8015 0.778279 37.3575 2.30801C38.2498 2.84341 38.9764 3.95885 39.6393 4.72371C43.2087 8.82211 46.7717 12.9205 50.341 17.0189C54.8792 22.2327 59.4174 27.4529 63.9556 32.6668L69.1057 38.5817C69.9598 39.5633 70.782 40.5959 71.6807 41.5392C71.7254 41.5838 71.7636 41.6348 71.8019 41.6794C72.6113 42.61 73.9562 41.2524 73.1531 40.3281C70.9478 37.7913 68.7424 35.2546 66.5307 32.7241C61.9925 27.5103 57.4479 22.2901 52.9097 17.0763C49.0854 12.6847 45.261 8.29309 41.4431 3.89512C40.7738 3.12388 40.1173 2.33987 39.4353 1.58776C37.912 -0.0821965 35.3688 -0.509234 33.412 0.663558C32.6344 1.12885 32.0863 1.82997 31.4999 2.5056C27.6564 6.92269 23.813 11.3398 19.9695 15.7569L19.6572 16.1138C18.8541 17.038 20.199 18.3957 21.0085 17.4651V17.4523Z" fill="#666666"/>
<path id="Vector_6" d="M66.1416 34.9421V62.9681C66.1416 64.1982 68.0538 64.1982 68.0538 62.9681V34.9421C68.0538 33.712 66.1416 33.712 66.1416 34.9421Z" fill="#666666"/>
<path id="Vector_7" d="M78.8893 56.5369C77.4361 56.5369 76.0402 55.7976 75.2435 54.5865C74.638 53.6687 74.5105 52.6807 74.5105 51.6163V48.5632C74.5105 47.6262 74.5105 46.7275 74.912 45.8543C76.2378 43.0243 80.1195 42.4698 82.1846 44.809C83.6315 46.4471 83.2682 48.8309 83.2682 50.8514C83.2682 51.8967 83.3383 52.9357 82.9049 53.9173C82.2037 55.5235 80.6166 56.5114 78.883 56.5433C77.9587 56.5624 77.9587 57.9965 78.883 57.9774C82.3248 57.9073 84.6959 55.1474 84.6959 51.8011C84.6959 49.4492 85.123 46.6128 83.7653 44.5413C81.7512 41.4691 77.2704 40.9847 74.7017 43.649C72.7067 45.7205 73.0636 48.5377 73.0636 51.1637C73.0636 52.5979 73.1528 53.9619 73.9432 55.2239C75.0013 56.9066 76.8879 57.971 78.883 57.971C79.8072 57.971 79.8072 56.5369 78.883 56.5369H78.8893Z" fill="#666666"/>
<path id="Vector_8" d="M78.1758 48.3274V62.9873C78.1758 63.9116 79.6099 63.9116 79.6099 62.9873V48.3274C79.6099 47.4032 78.1758 47.4032 78.1758 48.3274Z" fill="#666666"/>
<path id="Vector_9" d="M79.718 52.0245L81.9489 49.7937L82.2676 49.475C82.5353 49.2073 82.5544 48.7229 82.2676 48.4615C81.9808 48.2002 81.5346 48.1811 81.2541 48.4615L79.0233 50.6924L78.7046 51.0111C78.4369 51.2788 78.4178 51.7632 78.7046 52.0245C78.9914 52.2859 79.4376 52.305 79.718 52.0245Z" fill="#666666"/>
<path id="Vector_10" d="M75.1988 52.0242L77.9906 54.8159C78.1244 54.9498 78.2583 55.0836 78.3858 55.2111C78.6535 55.4788 79.1379 55.4979 79.3992 55.2111C79.6605 54.9243 79.6797 54.4781 79.3992 54.1977C78.4686 53.2671 77.538 52.3365 76.6075 51.4059L76.2123 51.0107C75.9446 50.743 75.4602 50.7239 75.1988 51.0107C74.9375 51.2976 74.9184 51.7437 75.1988 52.0242Z" fill="#666666"/>
<path id="Vector_11" d="M33.3162 35.8985H67.0977C68.3278 35.8985 68.3278 33.9863 67.0977 33.9863H33.3162C32.086 33.9863 32.086 35.8985 33.3162 35.8985Z" fill="#666666"/>
<path id="Vector_12" d="M43.1958 34.9421V62.9872C43.1958 64.2173 45.108 64.2173 45.108 62.9872V34.9421C45.108 33.712 43.1958 33.712 43.1958 34.9421Z" fill="#666666"/>
</g>
</svg>
