<svg width="79" height="64" viewBox="0 0 79 64" fill="none" xmlns="http://www.w3.org/2000/svg">
<g id="Group">
<path id="Vector" d="M1.28534 63.9461H68.3118C71.3934 63.9461 74.5053 64.0679 77.5869 63.9461C77.6295 63.9461 77.6721 63.9461 77.7148 63.9461C78.8901 63.9461 78.8901 62.1191 77.7148 62.1191H10.6883C7.60675 62.1191 4.49476 61.9973 1.41322 62.1191C1.37059 62.1191 1.32797 62.1191 1.28534 62.1191C0.109966 62.1191 0.109966 63.9461 1.28534 63.9461Z" fill="#666666"/>
<path id="Vector_2" d="M14.8356 62.4236V12.2481C14.8356 10.9753 14.6711 9.62336 15.7064 8.65505C16.8635 7.57712 18.9646 7.91816 20.4262 7.91816H44.5304C45.45 7.91816 46.3147 8.07041 46.9846 8.78903C47.551 9.39803 47.7154 10.141 47.7215 10.9388C47.7215 12.1812 47.7215 13.4235 47.7215 14.6659V62.4236C47.7215 63.599 49.5485 63.599 49.5485 62.4236V11.7975C49.5485 11.4443 49.5485 11.0971 49.5485 10.7439C49.5242 9.24578 48.8847 7.86335 47.6606 6.96812C46.1138 5.83538 44.0858 6.09116 42.271 6.09116H33.6963C28.4406 6.09116 23.191 6.09116 17.9354 6.09116C15.2253 6.09116 13.0268 7.94861 12.9964 10.7561C12.9842 11.8523 12.9964 12.9424 12.9964 14.0386V62.4236C12.9964 63.599 14.8234 63.599 14.8234 62.4236H14.8356Z" fill="#666666"/>
<path id="Vector_3" d="M28.3796 62.4233V52.4235C28.3796 52.2895 28.3431 52.0581 28.4101 51.9302C28.538 51.6866 28.9216 51.7658 29.147 51.7658H32.6975C33.0568 51.7658 33.4648 51.711 33.8241 51.7658C34.3296 51.8389 34.1834 52.4661 34.1834 52.8681V62.4233C34.1834 63.5986 36.0104 63.5986 36.0104 62.4233V53.002C36.0104 51.9667 36.0287 50.9314 35.036 50.2798C34.1773 49.7134 32.7705 49.9388 31.7961 49.9388C30.7669 49.9388 29.7316 49.9022 28.7024 49.9388C27.6732 49.9753 26.8389 50.6087 26.6135 51.6013C26.5465 51.8937 26.5587 52.1799 26.5587 52.4722V62.4233C26.5587 63.5986 28.3857 63.5986 28.3857 62.4233H28.3796Z" fill="#666666"/>
<path id="Vector_4" d="M48.6349 24.0626H59.8101C60.3338 24.0626 60.8637 24.0504 61.3874 24.0626C62.7516 24.0931 63.9635 25.037 64.1462 26.4316C64.2375 27.0954 64.1644 27.808 64.1644 28.4779V62.4235C64.1644 63.5989 65.9914 63.5989 65.9914 62.4235V28.8433C65.9914 28.1673 66.0097 27.4852 65.9914 26.8092C65.9488 25.1588 65.0901 23.5937 63.6163 22.802C62.7881 22.3574 61.905 22.2417 60.9855 22.2417H48.6349C47.4596 22.2417 47.4596 24.0687 48.6349 24.0687V24.0626Z" fill="#666666"/>
<path id="Vector_5" d="M28.2335 7.00442V0.91442C28.2335 0.439401 27.8133 -0.0234389 27.32 0.00092106C26.8267 0.025281 26.4065 0.402861 26.4065 0.91442V7.00442C26.4065 7.47943 26.8267 7.94227 27.32 7.91791C27.8133 7.89355 28.2335 7.51597 28.2335 7.00442Z" fill="#666666"/>
<path id="Vector_6" d="M33.1056 7.00445V3.35046C33.1056 2.87544 32.6854 2.4126 32.1921 2.43696C31.6988 2.46132 31.2786 2.8389 31.2786 3.35046V7.00445C31.2786 7.47947 31.6988 7.94231 32.1921 7.91795C32.6854 7.89359 33.1056 7.51601 33.1056 7.00445Z" fill="#666666"/>
<g id="Group_2">
<path id="Vector_7" d="M54.725 31.0599H58.988C59.463 31.0599 59.9258 30.6397 59.9015 30.1464C59.8771 29.6531 59.4995 29.2329 58.988 29.2329H54.725C54.2499 29.2329 53.7871 29.6531 53.8115 30.1464C53.8358 30.6397 54.2134 31.0599 54.725 31.0599Z" fill="#666666"/>
<path id="Vector_8" d="M54.725 38.368H58.988C59.463 38.368 59.9258 37.9478 59.9015 37.4545C59.8771 36.9612 59.4995 36.541 58.988 36.541H54.725C54.2499 36.541 53.7871 36.9612 53.8115 37.4545C53.8358 37.9478 54.2134 38.368 54.725 38.368Z" fill="#666666"/>
<path id="Vector_9" d="M54.725 45.6756H58.988C59.463 45.6756 59.9258 45.2554 59.9015 44.7621C59.8771 44.2688 59.4995 43.8486 58.988 43.8486H54.725C54.2499 43.8486 53.7871 44.2688 53.8115 44.7621C53.8358 45.2554 54.2134 45.6756 54.725 45.6756Z" fill="#666666"/>
<path id="Vector_10" d="M54.725 52.9837H58.988C59.463 52.9837 59.9258 52.5635 59.9015 52.0702C59.8771 51.5769 59.4995 51.1567 58.988 51.1567H54.725C54.2499 51.1567 53.7871 51.5769 53.8115 52.0702C53.8358 52.5635 54.2134 52.9837 54.725 52.9837Z" fill="#666666"/>
</g>
<g id="Group_3">
<g id="Group_4">
<path id="Vector_11" d="M37.6732 16.4437H41.9362C42.4112 16.4437 42.8741 16.0235 42.8497 15.5302C42.8253 15.0369 42.4478 14.6167 41.9362 14.6167H37.6732C37.1982 14.6167 36.7354 15.0369 36.7597 15.5302C36.7841 16.0235 37.1616 16.4437 37.6732 16.4437Z" fill="#666666"/>
<path id="Vector_12" d="M29.1473 16.4437H33.4103C33.8853 16.4437 34.3482 16.0235 34.3238 15.5302C34.2995 15.0369 33.9219 14.6167 33.4103 14.6167H29.1473C28.6723 14.6167 28.2095 15.0369 28.2338 15.5302C28.2582 16.0235 28.6358 16.4437 29.1473 16.4437Z" fill="#666666"/>
<path id="Vector_13" d="M20.6212 16.4437H24.8842C25.3592 16.4437 25.8221 16.0235 25.7977 15.5302C25.7733 15.0369 25.3958 14.6167 24.8842 14.6167H20.6212C20.1462 14.6167 19.6833 15.0369 19.7077 15.5302C19.7321 16.0235 20.1096 16.4437 20.6212 16.4437Z" fill="#666666"/>
</g>
<g id="Group_5">
<path id="Vector_14" d="M37.6732 23.7518H41.9362C42.4112 23.7518 42.8741 23.3316 42.8497 22.8383C42.8253 22.345 42.4478 21.9248 41.9362 21.9248H37.6732C37.1982 21.9248 36.7354 22.345 36.7597 22.8383C36.7841 23.3316 37.1616 23.7518 37.6732 23.7518Z" fill="#666666"/>
<path id="Vector_15" d="M29.1473 23.7518H33.4103C33.8853 23.7518 34.3482 23.3316 34.3238 22.8383C34.2995 22.345 33.9219 21.9248 33.4103 21.9248H29.1473C28.6723 21.9248 28.2095 22.345 28.2338 22.8383C28.2582 23.3316 28.6358 23.7518 29.1473 23.7518Z" fill="#666666"/>
<path id="Vector_16" d="M20.6212 23.7518H24.8842C25.3592 23.7518 25.8221 23.3316 25.7977 22.8383C25.7733 22.345 25.3958 21.9248 24.8842 21.9248H20.6212C20.1462 21.9248 19.6833 22.345 19.7077 22.8383C19.7321 23.3316 20.1096 23.7518 20.6212 23.7518Z" fill="#666666"/>
</g>
<g id="Group_6">
<path id="Vector_17" d="M37.6732 31.0599H41.9362C42.4112 31.0599 42.8741 30.6397 42.8497 30.1464C42.8253 29.6531 42.4478 29.2329 41.9362 29.2329H37.6732C37.1982 29.2329 36.7354 29.6531 36.7597 30.1464C36.7841 30.6397 37.1616 31.0599 37.6732 31.0599Z" fill="#666666"/>
<path id="Vector_18" d="M29.1473 31.0599H33.4103C33.8853 31.0599 34.3482 30.6397 34.3238 30.1464C34.2995 29.6531 33.9219 29.2329 33.4103 29.2329H29.1473C28.6723 29.2329 28.2095 29.6531 28.2338 30.1464C28.2582 30.6397 28.6358 31.0599 29.1473 31.0599Z" fill="#666666"/>
<path id="Vector_19" d="M20.6212 31.0599H24.8842C25.3592 31.0599 25.8221 30.6397 25.7977 30.1464C25.7733 29.6531 25.3958 29.2329 24.8842 29.2329H20.6212C20.1462 29.2329 19.6833 29.6531 19.7077 30.1464C19.7321 30.6397 20.1096 31.0599 20.6212 31.0599Z" fill="#666666"/>
</g>
<g id="Group_7">
<path id="Vector_20" d="M37.6732 38.368H41.9362C42.4112 38.368 42.8741 37.9478 42.8497 37.4545C42.8253 36.9612 42.4478 36.541 41.9362 36.541H37.6732C37.1982 36.541 36.7354 36.9612 36.7597 37.4545C36.7841 37.9478 37.1616 38.368 37.6732 38.368Z" fill="#666666"/>
<path id="Vector_21" d="M29.1473 38.368H33.4103C33.8853 38.368 34.3482 37.9478 34.3238 37.4545C34.2995 36.9612 33.9219 36.541 33.4103 36.541H29.1473C28.6723 36.541 28.2095 36.9612 28.2338 37.4545C28.2582 37.9478 28.6358 38.368 29.1473 38.368Z" fill="#666666"/>
<path id="Vector_22" d="M20.6212 38.368H24.8842C25.3592 38.368 25.8221 37.9478 25.7977 37.4545C25.7733 36.9612 25.3958 36.541 24.8842 36.541H20.6212C20.1462 36.541 19.6833 36.9612 19.7077 37.4545C19.7321 37.9478 20.1096 38.368 20.6212 38.368Z" fill="#666666"/>
</g>
<g id="Group_8">
<path id="Vector_23" d="M37.6732 45.6756H41.9362C42.4112 45.6756 42.8741 45.2554 42.8497 44.7621C42.8253 44.2688 42.4478 43.8486 41.9362 43.8486H37.6732C37.1982 43.8486 36.7354 44.2688 36.7597 44.7621C36.7841 45.2554 37.1616 45.6756 37.6732 45.6756Z" fill="#666666"/>
<path id="Vector_24" d="M29.1473 45.6756H33.4103C33.8853 45.6756 34.3482 45.2554 34.3238 44.7621C34.2995 44.2688 33.9219 43.8486 33.4103 43.8486H29.1473C28.6723 43.8486 28.2095 44.2688 28.2338 44.7621C28.2582 45.2554 28.6358 45.6756 29.1473 45.6756Z" fill="#666666"/>
<path id="Vector_25" d="M20.6212 45.6756H24.8842C25.3592 45.6756 25.8221 45.2554 25.7977 44.7621C25.7733 44.2688 25.3958 43.8486 24.8842 43.8486H20.6212C20.1462 43.8486 19.6833 44.2688 19.7077 44.7621C19.7321 45.2554 20.1096 45.6756 20.6212 45.6756Z" fill="#666666"/>
</g>
</g>
</g>
</svg>
