<svg width="80" height="64" viewBox="0 0 80 64" fill="none" xmlns="http://www.w3.org/2000/svg">
<g id="Group">
<path id="Vector" d="M1.58885 63.9389H68.6477C71.7358 63.9389 74.8528 64.076 77.9409 63.9389C77.9842 63.9389 78.0275 63.9389 78.078 63.9389C79.4706 63.9389 79.4706 61.7743 78.078 61.7743H11.0192C7.93108 61.7743 4.81408 61.6372 1.72594 61.7743C1.68265 61.7743 1.63935 61.7743 1.58885 61.7743C0.196296 61.7743 0.196296 63.9389 1.58885 63.9389Z" fill="#666666"/>
<path id="Vector_2" d="M7.51991 27.841C11.1348 24.8972 14.7568 21.9606 18.3717 19.0167C23.9563 14.4783 29.5409 9.9327 35.1256 5.39429C36.179 4.53567 37.2108 3.6049 38.3147 2.80401C40.6092 1.13728 42.4491 2.96996 44.1374 4.34808C49.4262 8.64838 54.715 12.9487 60.0038 17.249C64.2753 20.7195 68.5323 24.2117 72.811 27.6679C72.8831 27.7256 72.9625 27.7905 73.0346 27.8482C74.1097 28.7213 75.6466 27.1989 74.5643 26.3186C70.834 23.2882 67.1037 20.2506 63.3734 17.2201C57.7671 12.6601 52.168 8.10724 46.5618 3.54718C45.2847 2.50818 43.8993 1.06513 42.3625 0.415751C40.3855 -0.414006 38.3003 0.0477711 36.6624 1.36095C36.179 1.75058 35.7028 2.1402 35.2194 2.53704C29.9306 6.83735 24.6417 11.1377 19.3602 15.438L10.9255 22.2997C9.35257 23.5768 7.72915 24.8034 6.20672 26.1382C6.13457 26.2032 6.0552 26.2609 5.98305 26.3186C4.90076 27.1989 6.44483 28.7213 7.51269 27.8482L7.51991 27.841Z" fill="#666666"/>
<path id="Vector_3" d="M67.8179 23.9448V48.484C67.8179 49.826 67.8252 51.1608 67.8179 52.5029C67.8035 54.4943 66.4038 55.9446 64.3979 55.959C60.4367 55.9879 56.4755 55.959 52.5143 55.959H17.5996C16.0844 55.959 14.5331 56.0961 13.4508 54.754C12.5705 53.6573 12.7365 52.272 12.7365 50.966V23.9448C12.7365 22.5523 10.5719 22.5523 10.5719 23.9448V49.1261C10.5719 50.3022 10.543 51.4855 10.5719 52.6616C10.6368 55.7065 12.9746 58.0586 16.0267 58.1236C19.8796 58.2102 23.7398 58.1236 27.5928 58.1236H63.3156C65.307 58.1236 67.2191 57.9143 68.6333 56.2837C69.8815 54.8478 69.9825 53.1739 69.9825 51.3917V23.9448C69.9825 22.5523 67.8179 22.5523 67.8179 23.9448Z" fill="#666666"/>
<g id="Group_2">
<path id="Vector_4" d="M44.0003 39.234H38.5383C37.8817 39.234 37.2179 39.2484 36.5613 39.234C35.0028 39.1907 33.6175 38.2166 33.1774 36.687C32.997 36.0737 33.0403 35.4315 33.0403 34.7966V32.0259C33.0403 29.7964 33.0403 27.5669 33.0403 25.3373C33.0403 24.8323 33.0258 24.32 33.0403 23.8149C33.0763 22.3358 33.9421 21.001 35.3636 20.4887C36.0995 20.2217 36.886 20.2794 37.658 20.2794H41.0853C43.0911 20.2794 45.5371 19.8826 46.8719 21.7658C47.8244 23.1006 47.5141 25.1281 47.5141 26.6794C47.5141 29.1542 47.5141 31.6363 47.5141 34.1111C47.5141 34.6451 47.5285 35.179 47.5141 35.7129C47.4636 37.6683 45.9556 39.1763 43.993 39.2268C42.954 39.2556 42.9468 40.8791 43.993 40.8502C47.0956 40.7636 49.1303 38.3104 49.1375 35.3089V28.6852C49.1375 26.9824 49.2313 25.2508 49.1375 23.548C49.0437 21.8451 48.0336 20.1279 46.4607 19.2765C45.4866 18.7498 44.4548 18.6488 43.3798 18.6488C41.1647 18.6488 38.9423 18.6271 36.72 18.6488C33.7546 18.6776 31.4673 20.8999 31.4096 23.8726C31.3374 27.7761 31.3447 31.7084 31.4096 35.6191C31.4385 37.257 32.1167 38.7722 33.4299 39.7823C34.5482 40.641 35.8109 40.8502 37.1746 40.8502H44.0003C45.0465 40.8502 45.0465 39.2268 44.0003 39.2268V39.234Z" fill="#666666"/>
<path id="Vector_5" d="M39.469 20.3662V40.0423C39.469 41.0885 41.0924 41.0885 41.0924 40.0423V20.3662C41.0924 19.32 39.469 19.32 39.469 20.3662Z" fill="#666666"/>
<path id="Vector_6" d="M32.2248 31.4701H48.3294C49.3756 31.4701 49.3756 29.8467 48.3294 29.8467H32.2248C31.1786 29.8467 31.1786 31.4701 32.2248 31.4701Z" fill="#666666"/>
<path id="Vector_7" d="M29.0935 44.4364H51.4537C52.4999 44.4364 52.4999 42.813 51.4537 42.813H29.0935C28.0473 42.813 28.0473 44.4364 29.0935 44.4364Z" fill="#666666"/>
</g>
<path id="Vector_8" d="M66.7933 16.2172C65.2997 15.0267 63.8134 13.829 62.3198 12.6384L62.5579 13.2157V3.37403L61.7498 4.18214H66.2233L65.4152 3.37403V16.7944C65.4152 17.8407 67.0386 17.8407 67.0386 16.7944V3.37403C67.0386 2.9339 66.6634 2.56592 66.2305 2.56592H61.757C61.3169 2.56592 60.9489 2.94111 60.9489 3.37403V10.1925C60.9489 11.1665 60.9056 12.155 60.9489 13.1291C60.9922 13.9805 62.1683 14.5721 62.76 15.0484C63.7268 15.8204 64.6937 16.5924 65.6605 17.3645C66.4686 18.0138 67.6231 16.8666 66.8077 16.2172H66.7933Z" fill="#666666"/>
</g>
</svg>
