<svg width="87" height="64" viewBox="0 0 87 64" fill="none" xmlns="http://www.w3.org/2000/svg">
<g id="Group">
<g id="Group_2">
<path id="Vector" d="M2.34633 24.185L10.847 17.2721C15.2499 13.6943 19.6458 10.1166 24.0487 6.53879C24.9085 5.83849 25.7405 5.06193 26.6488 4.43097C28.3892 3.21758 29.7551 4.6459 31.024 5.67902C35.1842 9.06265 39.3513 12.4463 43.5115 15.8368C46.8744 18.5756 50.2303 21.3283 53.6069 24.0463C53.6624 24.0948 53.7248 24.1434 53.7803 24.1919C54.8134 25.0309 56.2903 23.5679 55.2502 22.722C52.3103 20.3299 49.3704 17.9378 46.4236 15.5456C41.993 11.9401 37.5624 8.33463 33.1318 4.73605C32.1264 3.91788 31.0378 2.79461 29.8383 2.27459C28.195 1.56042 26.4616 1.94177 25.0957 3.03035C24.7213 3.3285 24.3469 3.64052 23.9724 3.9456C19.8122 7.32924 15.6451 10.7129 11.4849 14.0965C9.25919 15.9062 7.03347 17.7159 4.80083 19.5325C3.5597 20.5379 2.2631 21.5086 1.06357 22.5695C1.00117 22.6249 0.938795 22.6735 0.876392 22.722C-0.163659 23.5679 1.32014 25.0309 2.34633 24.1919V24.185Z" fill="#666666"/>
<path id="Vector_2" d="M6.51345 38.6209V20.9817C6.51345 19.6435 4.43335 19.6435 4.43335 20.9817V38.6209C4.43335 39.9591 6.51345 39.9591 6.51345 38.6209Z" fill="#666666"/>
<path id="Vector_3" d="M51.6863 38.6764V20.9817C51.6863 19.6435 49.6062 19.6435 49.6062 20.9817V38.6764C49.6062 40.0146 51.6863 40.0146 51.6863 38.6764Z" fill="#666666"/>
<path id="Vector_4" d="M29.5262 46.0537H28.4584C28.3128 46.0537 28.181 46.0814 28.0562 46.1439C27.9245 46.1855 27.8136 46.2548 27.7234 46.3588C27.6194 46.4559 27.5501 46.5668 27.5085 46.6916C27.4461 46.8164 27.4114 46.9482 27.4184 47.0938L27.453 47.3711C27.5016 47.5444 27.5917 47.697 27.7234 47.8287C27.9245 48.0159 28.1741 48.1338 28.4584 48.1338H29.5262C29.6718 48.1338 29.8035 48.1061 29.9283 48.0437C30.0601 48.0021 30.171 47.9327 30.2611 47.8287C30.3651 47.7317 30.4345 47.6207 30.4761 47.4959C30.5385 47.3711 30.5732 47.2394 30.5662 47.0938L30.5316 46.8164C30.483 46.6431 30.3929 46.4905 30.2611 46.3588C30.0601 46.1716 29.8105 46.0537 29.5262 46.0537Z" fill="#666666"/>
<g id="Group_3">
<path id="Vector_5" d="M30.2543 32.9002H26.4131C25.6781 32.9002 24.9917 32.8655 24.3191 32.5188C23.3137 31.9988 22.6134 30.9726 22.5094 29.8494C22.4054 28.7816 22.4956 27.6653 22.4956 26.5975V22.0836C22.4956 20.3849 23.2375 18.811 25.0125 18.3395C26.3091 17.9928 27.89 18.2285 29.2143 18.2285C29.769 18.2285 30.3652 18.18 30.913 18.2909C32.0155 18.5128 32.9723 19.2963 33.3953 20.3433C33.8182 21.3903 33.638 22.8047 33.638 23.928V29.0104C33.638 29.6552 33.6241 30.2792 33.3537 30.8894C32.8059 32.1305 31.5925 32.8724 30.2612 32.9071C29.2558 32.9348 29.2558 34.4949 30.2612 34.4672C32.9931 34.3978 35.1356 32.2692 35.198 29.5304C35.2258 28.213 35.198 26.8887 35.198 25.5713C35.198 24.2539 35.2327 22.9296 35.198 21.6122C35.1287 18.9427 33.0625 16.7655 30.3653 16.6754C28.923 16.6269 27.467 16.6615 26.0178 16.6754C23.6881 16.6962 21.5456 18.1939 21.0464 20.5444C20.7621 21.8964 20.9285 23.408 20.9285 24.7739C20.9285 26.3201 20.9077 27.8733 20.9285 29.4264C20.9701 32.0959 22.9393 34.3146 25.6504 34.4672C27.1758 34.5504 28.7289 34.4672 30.2543 34.4672C31.2597 34.4672 31.2597 32.9071 30.2543 32.9071V32.9002Z" fill="#666666"/>
<path id="Vector_6" d="M27.2798 18.1525V33.677C27.2798 34.6824 28.8399 34.6824 28.8399 33.677V18.1525C28.8399 17.1471 27.2798 17.1471 27.2798 18.1525Z" fill="#666666"/>
<path id="Vector_7" d="M21.705 27.0484H34.4075C35.4128 27.0484 35.4128 25.4883 34.4075 25.4883H21.705C20.6996 25.4883 20.6996 27.0484 21.705 27.0484Z" fill="#666666"/>
<path id="Vector_8" d="M19.2367 37.2822H36.8829C37.8883 37.2822 37.8883 35.7222 36.8829 35.7222H19.2367C18.2313 35.7222 18.2313 37.2822 19.2367 37.2822Z" fill="#666666"/>
</g>
<path id="Vector_9" d="M49.0791 14.7759C47.9004 13.8329 46.7286 12.8969 45.5499 11.9539L45.7786 12.5086V4.74288L45.0021 5.51944H48.5313L47.7548 4.74288V15.3306C47.7548 16.336 49.3148 16.336 49.3148 15.3306V4.74288C49.3148 4.31992 48.9543 3.96631 48.5383 3.96631H45.009C44.5861 3.96631 44.2324 4.32686 44.2324 4.74288V10.1234C44.2324 10.893 44.1978 11.6696 44.2324 12.4393C44.2671 13.2089 45.1893 13.6388 45.7024 14.0479C46.4651 14.658 47.2278 15.2682 47.9905 15.8783C48.3233 16.1418 48.7671 16.1973 49.093 15.8783C49.3703 15.6079 49.4188 15.0394 49.093 14.7759H49.0791Z" fill="#666666"/>
</g>
<path id="Vector_10" d="M85.6889 29.8081C81.7645 29.8081 77.84 29.8081 73.9086 29.8081C67.6198 29.8081 61.324 29.8081 55.0352 29.8081C53.5999 29.8081 52.1577 29.8081 50.7224 29.8081C50.0499 29.8081 50.0499 30.8482 50.7224 30.8482C54.6469 30.8482 58.5714 30.8482 62.5027 30.8482C68.7916 30.8482 75.0874 30.8482 81.3762 30.8482C82.8115 30.8482 84.2537 30.8482 85.6889 30.8482C86.3615 30.8482 86.3615 29.8081 85.6889 29.8081Z" fill="#666666"/>
<path id="Vector_11" d="M85.6889 33.5869C81.7645 33.5869 77.84 33.5869 73.9086 33.5869C67.6198 33.5869 61.324 33.5869 55.0352 33.5869C53.5999 33.5869 52.1577 33.5869 50.7224 33.5869C50.0499 33.5869 50.0499 34.627 50.7224 34.627C54.6469 34.627 58.5714 34.627 62.5027 34.627C68.7916 34.627 75.0874 34.627 81.3762 34.627C82.8115 34.627 84.2537 34.627 85.6889 34.627C86.3615 34.627 86.3615 33.5869 85.6889 33.5869Z" fill="#666666"/>
<path id="Vector_12" d="M82.6453 27.4922C82.6453 31.0769 82.6453 34.6686 82.6453 38.2533C82.6453 38.7594 82.6453 39.2656 82.6453 39.7787C82.6453 40.4512 83.6853 40.4512 83.6853 39.7787C83.6853 36.194 83.6853 32.6023 83.6853 29.0176C83.6853 28.5115 83.6853 28.0053 83.6853 27.4922C83.6853 26.8197 82.6453 26.8197 82.6453 27.4922Z" fill="#666666"/>
<path id="Vector_13" d="M85.1689 27.4922C85.1689 31.4444 85.1689 35.4035 85.1689 39.3557C85.1689 39.9174 85.1689 40.472 85.1689 41.0337C85.1689 41.7062 86.209 41.7062 86.209 41.0337C86.209 37.0815 86.209 33.1224 86.209 29.1702C86.209 28.6085 86.209 28.0538 86.209 27.4922C86.209 26.8197 85.1689 26.8197 85.1689 27.4922Z" fill="#666666"/>
<path id="Vector_14" d="M77.6111 27.4922C77.6111 30.6193 77.6111 33.7464 77.6111 36.8735C77.6111 37.3172 77.6111 37.761 77.6111 38.1978C77.6111 38.8704 78.6511 38.8704 78.6511 38.1978C78.6511 35.0707 78.6511 31.9436 78.6511 28.8166C78.6511 28.3728 78.6511 27.929 78.6511 27.4922C78.6511 26.8197 77.6111 26.8197 77.6111 27.4922Z" fill="#666666"/>
<path id="Vector_15" d="M80.1282 27.4922C80.1282 30.8966 80.1282 34.3011 80.1282 37.7055C80.1282 38.1839 80.1282 38.6693 80.1282 39.1477C80.1282 39.8203 81.1682 39.8203 81.1682 39.1477C81.1682 35.7433 81.1682 32.3389 81.1682 28.9344C81.1682 28.456 81.1682 27.9706 81.1682 27.4922C81.1682 26.8197 80.1282 26.8197 80.1282 27.4922Z" fill="#666666"/>
<path id="Vector_16" d="M75.0874 27.4922C75.0874 30.6193 75.0874 33.7464 75.0874 36.8735C75.0874 37.3172 75.0874 37.761 75.0874 38.1978C75.0874 38.8704 76.1275 38.8704 76.1275 38.1978C76.1275 35.0707 76.1275 31.9436 76.1275 28.8166C76.1275 28.3728 76.1275 27.929 76.1275 27.4922C76.1275 26.8197 75.0874 26.8197 75.0874 27.4922Z" fill="#666666"/>
<path id="Vector_17" d="M72.2515 27.4922C72.2515 30.6193 72.2515 33.7464 72.2515 36.8735C72.2515 37.3172 72.2515 37.761 72.2515 38.1978C72.2515 38.8704 73.2915 38.8704 73.2915 38.1978C73.2915 35.0707 73.2915 31.9436 73.2915 28.8166C73.2915 28.3728 73.2915 27.929 73.2915 27.4922C73.2915 26.8197 72.2515 26.8197 72.2515 27.4922Z" fill="#666666"/>
<path id="Vector_18" d="M69.4155 27.4922C69.4155 30.439 69.4155 33.3789 69.4155 36.3257C69.4155 36.7417 69.4155 37.1578 69.4155 37.5738C69.4155 38.2463 70.4556 38.2463 70.4556 37.5738C70.4556 34.627 70.4556 31.6871 70.4556 28.7403C70.4556 28.3243 70.4556 27.9082 70.4556 27.4922C70.4556 26.8197 69.4155 26.8197 69.4155 27.4922Z" fill="#666666"/>
<path id="Vector_19" d="M66.5867 27.4922C66.5867 30.439 66.5867 33.3789 66.5867 36.3257C66.5867 36.7417 66.5867 37.1578 66.5867 37.5738C66.5867 38.2463 67.6267 38.2463 67.6267 37.5738C67.6267 34.627 67.6267 31.6871 67.6267 28.7403C67.6267 28.3243 67.6267 27.9082 67.6267 27.4922C67.6267 26.8197 66.5867 26.8197 66.5867 27.4922Z" fill="#666666"/>
<path id="Vector_20" d="M63.751 27.4922C63.751 30.439 63.751 33.3789 63.751 36.3257C63.751 36.7417 63.751 37.1578 63.751 37.5738C63.751 38.2463 64.791 38.2463 64.791 37.5738C64.791 34.627 64.791 31.6871 64.791 28.7403C64.791 28.3243 64.791 27.9082 64.791 27.4922C64.791 26.8197 63.751 26.8197 63.751 27.4922Z" fill="#666666"/>
<path id="Vector_21" d="M60.915 27.4922C60.915 30.439 60.915 33.3789 60.915 36.3257C60.915 36.7417 60.915 37.1578 60.915 37.5738C60.915 38.2463 61.9551 38.2463 61.9551 37.5738C61.9551 34.627 61.9551 31.6871 61.9551 28.7403C61.9551 28.3243 61.9551 27.9082 61.9551 27.4922C61.9551 26.8197 60.915 26.8197 60.915 27.4922Z" fill="#666666"/>
<path id="Vector_22" d="M58.0791 27.4922C58.0791 30.439 58.0791 33.3789 58.0791 36.3257C58.0791 36.7417 58.0791 37.1578 58.0791 37.5738C58.0791 38.2463 59.1192 38.2463 59.1192 37.5738C59.1192 34.627 59.1192 31.6871 59.1192 28.7403C59.1192 28.3243 59.1192 27.9082 59.1192 27.4922C59.1192 26.8197 58.0791 26.8197 58.0791 27.4922Z" fill="#666666"/>
<path id="Vector_23" d="M55.2432 27.4922C55.2432 30.6193 55.2432 33.7464 55.2432 36.8735C55.2432 37.3172 55.2432 37.761 55.2432 38.1978C55.2432 38.8704 56.2832 38.8704 56.2832 38.1978C56.2832 35.0707 56.2832 31.9436 56.2832 28.8166C56.2832 28.3728 56.2832 27.929 56.2832 27.4922C56.2832 26.8197 55.2432 26.8197 55.2432 27.4922Z" fill="#666666"/>
<path id="Vector_24" d="M52.4072 27.4922C52.4072 30.6193 52.4072 33.7464 52.4072 36.8735C52.4072 37.3172 52.4072 37.761 52.4072 38.1978C52.4072 38.8704 53.4473 38.8704 53.4473 38.1978C53.4473 35.0707 53.4473 31.9436 53.4473 28.8166C53.4473 28.3728 53.4473 27.929 53.4473 27.4922C53.4473 26.8197 52.4072 26.8197 52.4072 27.4922Z" fill="#666666"/>
<g id="Group_4">
<path id="Vector_25" d="M65.4773 18.4923C62.8079 18.7974 60.1869 17.9515 58.3148 15.9893C56.5468 14.138 55.7217 11.4547 56.1724 8.9308C57.1084 3.66814 63.002 0.492518 67.8695 2.88463C70.4835 4.16736 72.2723 6.72588 72.515 9.63802C72.6259 10.9624 74.706 10.9762 74.5951 9.63802C74.3177 6.38613 72.6537 3.46014 69.908 1.65738C67.2524 -0.0829687 63.7578 -0.492055 60.7832 0.617332C54.5429 2.94011 51.922 10.8098 55.8811 16.2944C58.0722 19.3313 61.7401 21.0023 65.4704 20.5724C66.7878 20.4199 66.8017 18.3398 65.4704 18.4923H65.4773Z" fill="#666666"/>
<path id="Vector_26" d="M73.0349 10.5326C75.6558 12.2521 76.3215 15.9616 74.3454 18.43C72.3693 20.8984 68.4865 21.0995 66.2122 18.7975C65.2692 17.8407 63.7993 19.3106 64.7423 20.2674C67.1691 22.7289 71.0796 23.2836 74.0403 21.4323C76.7722 19.7266 78.1312 16.4054 77.3685 13.2714C76.9108 11.3854 75.6905 9.79066 74.0819 8.73674C72.9587 8.00177 71.9117 9.80452 73.0349 10.5326Z" fill="#666666"/>
<path id="Vector_27" d="M66.0667 21.1965V36.9429C66.0667 38.2811 68.1468 38.2811 68.1468 36.9429V21.1965C68.1468 19.8583 66.0667 19.8583 66.0667 21.1965Z" fill="#666666"/>
</g>
<path id="Vector_28" d="M0.994143 38.6833C20.9492 42.5731 38.1239 54.5337 57.7601 59.4427C63.3278 60.8364 69.0481 61.5852 74.7892 61.398C76.1274 61.3564 76.1274 59.2763 74.7892 59.3179C54.2863 59.9835 36.134 48.5499 17.6141 41.4498C12.3931 39.446 7.04723 37.7473 1.54883 36.6725C0.238365 36.416 -0.31632 38.4198 0.994143 38.6764V38.6833Z" fill="#666666"/>
<path id="Vector_29" d="M34.4491 62.0079C24.6518 54.8523 13.3984 49.7908 1.5488 47.1906C0.245267 46.9063 -0.316352 48.9102 0.994112 49.1945C12.6912 51.7669 23.7296 56.7383 33.3951 63.8037C34.4768 64.5942 35.5169 62.7914 34.4421 62.0079H34.4491Z" fill="#666666"/>
<path id="Vector_30" d="M1.27161 59.1377C5.00193 59.2764 8.66984 60.0044 12.1921 61.2524C12.7191 61.4397 13.3293 61.0375 13.4749 60.5244C13.6344 59.9489 13.2808 59.4358 12.7469 59.2417C9.05816 57.9312 5.18914 57.1962 1.27855 57.0506C-0.0596473 57.0021 -0.0596473 59.0822 1.27855 59.1307L1.27161 59.1377Z" fill="#666666"/>
<path id="Vector_31" d="M85.9662 39.7582C71.1698 34.6688 54.5913 35.1057 40.0098 40.7289C36.023 42.2681 32.1748 44.1749 28.5624 46.47C27.4322 47.1841 28.4791 48.9869 29.6093 48.2658C42.3049 40.195 57.8432 36.9154 72.7437 38.7944C77.0564 39.3352 81.2999 40.3475 85.4115 41.762C86.6804 42.1988 87.2281 40.188 85.9662 39.7582Z" fill="#666666"/>
<path id="Vector_32" d="M41.882 53.5976C52.2478 48.328 64.4442 46.9274 75.7807 49.3888C78.991 50.0891 82.1458 51.0806 85.162 52.3911C86.3754 52.9181 87.4362 51.1292 86.2089 50.5953C75.0319 45.7348 62.2739 44.8057 50.5144 48.0437C47.1724 48.9659 43.9205 50.2278 40.8281 51.8017C39.6355 52.405 40.6824 54.2008 41.875 53.5976H41.882Z" fill="#666666"/>
<path id="Vector_33" d="M57.8572 58.777C65.5605 55.8163 74.3801 56.5235 81.4871 60.7392C82.6381 61.4256 83.692 59.6229 82.5341 58.9434C74.9903 54.4712 65.4981 53.6253 57.3025 56.7731C56.0683 57.2446 56.6022 59.2623 57.8572 58.777Z" fill="#666666"/>
</g>
</svg>
