<svg width="79" height="64" viewBox="0 0 79 64" fill="none" xmlns="http://www.w3.org/2000/svg">
<g id="Group">
<path id="Vector" d="M1.25559 63.9389H68.3144C71.4026 63.9389 74.5196 64.076 77.6077 63.9389C77.651 63.9389 77.6943 63.9389 77.7448 63.9389C79.1373 63.9389 79.1373 61.7743 77.7448 61.7743H10.686C7.59783 61.7743 4.48083 61.6372 1.39269 61.7743C1.34939 61.7743 1.3061 61.7743 1.25559 61.7743C-0.136956 61.7743 -0.136956 63.9389 1.25559 63.9389Z" fill="#666666"/>
<path id="Vector_2" d="M7.18666 27.841C10.8015 24.8972 14.4236 21.9606 18.0384 19.0167C23.6231 14.4783 29.2077 9.9327 34.7923 5.39429C35.8458 4.53567 36.8775 3.6049 37.9815 2.80401C40.2759 1.13728 42.1158 2.96995 43.8042 4.34807L59.6706 17.249C63.9421 20.7195 68.1991 24.2117 72.4777 27.6679C72.5499 27.7256 72.6292 27.7905 72.7014 27.8482C73.7765 28.7213 75.3134 27.1989 74.2311 26.3186C70.5008 23.2882 66.7705 20.2505 63.0402 17.2201C57.4339 12.6601 51.8348 8.10724 46.2286 3.54718C44.9515 2.50818 43.5661 1.06513 42.0293 0.415751C40.0523 -0.414006 37.9671 0.0477701 36.3292 1.36095C35.8458 1.75058 35.3696 2.14021 34.8861 2.53705L19.0269 15.438L10.5923 22.2997C9.01934 23.5768 7.3959 24.8034 5.87347 26.1382C5.80132 26.2032 5.72195 26.2609 5.6498 26.3186C4.56751 27.1989 6.11157 28.7213 7.17944 27.8482L7.18666 27.841Z" fill="#666666"/>
<path id="Vector_3" d="M67.4847 23.9447V48.4839C67.4847 49.8259 67.4919 51.1608 67.4847 52.5028C67.4703 54.4942 66.0705 55.9445 64.0646 55.9589C60.1034 55.9878 56.1423 55.9589 52.1811 55.9589H17.2663C15.7511 55.9589 14.1998 56.096 13.1175 54.754C12.2373 53.6572 12.4032 52.2719 12.4032 50.9659V23.9447C12.4032 22.5522 10.2387 22.5522 10.2387 23.9447V49.126C10.2387 50.3021 10.2098 51.4854 10.2387 52.6615C10.3036 55.7064 12.6413 58.0585 15.6934 58.1235C19.5464 58.2101 23.4065 58.1235 27.2595 58.1235H62.9823C64.9738 58.1235 66.8858 57.9142 68.3 56.2836C69.5483 54.8478 69.6493 53.1738 69.6493 51.3916V23.9375C69.6493 22.5449 67.4847 22.5449 67.4847 23.9375V23.9447Z" fill="#666666"/>
<path id="Vector_4" d="M66.4601 16.2172C64.9665 15.0267 63.4802 13.829 61.9866 12.6385L62.2247 13.2157V3.37403L61.4166 4.18216H65.8901L65.0819 3.37403V16.7945C65.0819 17.8407 66.7054 17.8407 66.7054 16.7945V3.37403C66.7054 2.93389 66.3302 2.56592 65.8973 2.56592H61.4238C60.9837 2.56592 60.6157 2.94111 60.6157 3.37403V10.1925C60.6157 11.1665 60.5724 12.155 60.6157 13.1291C60.659 13.9805 61.8351 14.5722 62.4267 15.0484C63.3936 15.8204 64.3604 16.5924 65.3273 17.3645C66.1354 18.0138 67.2898 16.8666 66.4745 16.2172H66.4601Z" fill="#666666"/>
<g id="Group_2">
<path id="Vector_5" d="M37.1443 27.2997C37.1154 29.4499 35.795 31.4557 33.7386 32.1989C31.6823 32.9421 29.2507 32.3071 27.8438 30.5683C26.4368 28.8294 26.3358 26.4628 27.4397 24.6157C28.5437 22.7685 30.7299 21.7656 32.8367 22.1553C35.326 22.617 37.101 24.7888 37.1371 27.2997C37.1587 28.6923 39.3233 28.6923 39.3016 27.2997C39.2583 24.2044 37.3607 21.4698 34.4674 20.3731C31.5741 19.2764 28.1973 20.2071 26.2564 22.5665C24.3155 24.9259 23.9692 28.3965 25.571 31.0733C27.1728 33.7502 30.2898 35.0922 33.3274 34.5439C36.7907 33.9234 39.2511 30.7559 39.3016 27.2997C39.3233 25.9072 37.1587 25.9072 37.1371 27.2997H37.1443Z" fill="#666666"/>
<path id="Vector_6" d="M21.545 51.0742C21.545 48.3685 21.545 45.6555 21.545 42.9498C21.545 41.3769 21.9563 39.8545 23.5797 39.2123C24.4456 38.866 25.499 38.9814 26.4153 38.9814H36.3724C37.2599 38.9814 38.1474 38.9598 39.0349 38.9814C40.9181 39.0175 42.2817 40.4894 42.3034 42.3437C42.3322 45.2515 42.3034 48.1665 42.3034 51.0742C42.3034 52.4668 44.468 52.4668 44.468 51.0742C44.468 48.217 44.4824 45.3669 44.468 42.5097C44.4608 40.3667 43.4434 38.3248 41.4448 37.3724C40.2398 36.7952 39.006 36.8168 37.7145 36.8168H27.1874C26.2349 36.8168 25.2537 36.7519 24.3013 36.8457C21.5089 37.1199 19.4381 39.4504 19.3804 42.2283C19.3155 45.1721 19.3804 48.1304 19.3804 51.0742C19.3804 52.4668 21.545 52.4668 21.545 51.0742Z" fill="#666666"/>
<path id="Vector_7" d="M53.1838 22.1411C53.155 24.2912 51.8346 26.2971 49.7782 27.0402C47.7218 27.7834 45.2903 27.1485 43.8833 25.4096C42.4764 23.6707 42.3753 21.3041 43.4793 19.457C44.5832 17.6099 46.7694 16.6069 48.8763 16.9966C51.3656 17.4583 53.1405 19.6301 53.1766 22.1411C53.1982 23.5336 55.3628 23.5336 55.3412 22.1411C55.2979 19.0457 53.4003 16.3111 50.507 15.2144C47.6136 14.1177 44.2369 15.0484 42.296 17.4078C40.3551 19.7672 40.0087 23.2378 41.6105 25.9147C43.2123 28.5915 46.3293 29.9336 49.3669 29.3852C52.8303 28.7647 55.2907 25.5972 55.3412 22.1411C55.3628 20.7485 53.1982 20.7485 53.1766 22.1411H53.1838Z" fill="#666666"/>
<path id="Vector_8" d="M42.1373 33.8228H52.9674C54.4971 33.8228 56.1999 33.5847 57.3832 34.7753C58.7108 36.1029 58.3356 38.3396 58.3356 40.0569C58.3356 42.0122 58.3356 43.9675 58.3356 45.9229C58.3356 47.3154 60.5002 47.3154 60.5002 45.9229C60.5002 44.1335 60.5002 42.3441 60.5002 40.5547C60.5002 38.5994 60.796 36.3265 59.8724 34.5371C59.086 33.0147 57.5347 31.9613 55.8535 31.7232C55.2763 31.6438 54.6991 31.6583 54.1219 31.6583H42.1445C40.752 31.6583 40.752 33.8228 42.1445 33.8228H42.1373Z" fill="#666666"/>
</g>
</g>
</svg>
