<svg width="83" height="64" viewBox="0 0 83 64" fill="none" xmlns="http://www.w3.org/2000/svg">
<g id="Group">
<g id="Group_2">
<path id="Vector" d="M61.1731 21.801H73.1657C73.7278 21.801 74.2963 21.7879 74.8584 21.801C76.3223 21.8337 77.6229 22.8467 77.819 24.3433C77.917 25.0557 77.8386 25.8203 77.8386 26.5392V62.9681C77.8386 64.2294 79.7992 64.2294 79.7992 62.9681V26.9248C79.7992 26.1994 79.8188 25.4674 79.7992 24.742C79.7535 22.9708 78.832 21.2912 77.2504 20.4416C76.3616 19.9645 75.4139 19.8403 74.427 19.8403H61.1731C59.9117 19.8403 59.9117 21.801 61.1731 21.801Z" fill="#666666"/>
<g id="Group_3">
<path id="Vector_2" d="M67.7086 29.3039H72.2835C72.7932 29.3039 73.2899 28.853 73.2638 28.3236C73.2376 27.7942 72.8324 27.3433 72.2835 27.3433H67.7086C67.1988 27.3433 66.7021 27.7942 66.7283 28.3236C66.7544 28.853 67.1596 29.3039 67.7086 29.3039Z" fill="#666666"/>
<path id="Vector_3" d="M67.7086 37.1467H72.2835C72.7932 37.1467 73.2899 36.6957 73.2638 36.1664C73.2376 35.637 72.8324 35.186 72.2835 35.186H67.7086C67.1988 35.186 66.7021 35.637 66.7283 36.1664C66.7544 36.6957 67.1596 37.1467 67.7086 37.1467Z" fill="#666666"/>
<path id="Vector_4" d="M67.7086 44.9885H72.2835C72.7932 44.9885 73.2899 44.5375 73.2638 44.0082C73.2376 43.4788 72.8324 43.0278 72.2835 43.0278H67.7086C67.1988 43.0278 66.7021 43.4788 66.7283 44.0082C66.7544 44.5375 67.1596 44.9885 67.7086 44.9885Z" fill="#666666"/>
<path id="Vector_5" d="M67.7086 52.8313H72.2835C72.7932 52.8313 73.2899 52.3803 73.2638 51.8509C73.2376 51.3216 72.8324 50.8706 72.2835 50.8706H67.7086C67.1988 50.8706 66.7021 51.3216 66.7283 51.8509C66.7544 52.3803 67.1596 52.8313 67.7086 52.8313Z" fill="#666666"/>
</g>
</g>
<g id="Group_4">
<path id="Vector_6" d="M21.9602 34.8721C19.163 34.8721 16.3658 34.8721 13.5686 34.8721H8.90881C7.22265 34.8721 5.62799 35.2577 4.49735 36.617C2.87655 38.5646 3.34057 41.5644 3.34057 43.9303C3.34057 47.6947 3.34057 51.4592 3.34057 55.2236C3.34057 57.8051 3.34057 60.3866 3.34057 62.9682C3.34057 64.2295 5.30122 64.2295 5.30122 62.9682C5.30122 57.2431 5.30122 51.518 5.30122 45.7863C5.30122 43.7865 5.25547 41.7736 5.30122 39.7737C5.34697 37.9045 6.83706 36.8327 8.58857 36.8327H12.4903C15.6469 36.8327 18.8101 36.8327 21.9667 36.8327C23.2281 36.8327 23.2281 34.8721 21.9667 34.8721H21.9602Z" fill="#666666"/>
<g id="Group_5">
<path id="Vector_7" d="M15.4246 43.0278C14.0913 43.0278 12.7516 43.0278 11.4183 43.0278C11.2288 43.0278 11.0393 43.0278 10.8497 43.0278C10.34 43.0278 9.84325 43.4788 9.8694 44.0082C9.89554 44.5375 10.3007 44.9885 10.8497 44.9885C12.183 44.9885 13.5227 44.9885 14.856 44.9885C15.0455 44.9885 15.235 44.9885 15.4246 44.9885C15.9343 44.9885 16.431 44.5375 16.4049 44.0082C16.3787 43.4788 15.9735 43.0278 15.4246 43.0278Z" fill="#666666"/>
<path id="Vector_8" d="M15.4246 50.8706C14.0913 50.8706 12.7516 50.8706 11.4183 50.8706C11.2288 50.8706 11.0393 50.8706 10.8497 50.8706C10.34 50.8706 9.84325 51.3216 9.8694 51.8509C9.89554 52.3803 10.3007 52.8313 10.8497 52.8313C12.183 52.8313 13.5227 52.8313 14.856 52.8313C15.0455 52.8313 15.235 52.8313 15.4246 52.8313C15.9343 52.8313 16.431 52.3803 16.4049 51.8509C16.3787 51.3216 15.9735 50.8706 15.4246 50.8706Z" fill="#666666"/>
</g>
</g>
<g id="Group_6">
<path id="Vector_9" d="M38.1291 62.9614V52.2301C38.1291 52.0863 38.0899 51.8379 38.1618 51.7007C38.299 51.4393 38.7108 51.5242 38.9526 51.5242H42.7628C43.1484 51.5242 43.5863 51.4654 43.9718 51.5242C44.5143 51.6027 44.3574 52.2758 44.3574 52.7072V62.9614C44.3574 64.2227 46.3181 64.2227 46.3181 62.9614V52.8509C46.3181 51.7399 46.3377 50.6289 45.2724 49.9296C44.3509 49.3218 42.8412 49.5636 41.7955 49.5636C40.691 49.5636 39.58 49.5244 38.4755 49.5636C37.371 49.6028 36.4756 50.2825 36.2338 51.3478C36.1619 51.6615 36.175 51.9687 36.175 52.2824V62.9614C36.175 64.2227 38.1356 64.2227 38.1356 62.9614H38.1291Z" fill="#666666"/>
<g id="Group_7">
<g id="Group_8">
<path id="Vector_10" d="M48.1024 21.4611H52.6773C53.187 21.4611 53.6837 21.0102 53.6576 20.4808C53.6314 19.9514 53.2262 19.5005 52.6773 19.5005H48.1024C47.5926 19.5005 47.0959 19.9514 47.1221 20.4808C47.1482 21.0102 47.5534 21.4611 48.1024 21.4611Z" fill="#666666"/>
<path id="Vector_11" d="M38.9527 21.4611H43.5276C44.0374 21.4611 44.5341 21.0102 44.5079 20.4808C44.4818 19.9514 44.0766 19.5005 43.5276 19.5005H38.9527C38.443 19.5005 37.9463 19.9514 37.9724 20.4808C37.9986 21.0102 38.4038 21.4611 38.9527 21.4611Z" fill="#666666"/>
<path id="Vector_12" d="M29.8031 21.4611H34.3779C34.8877 21.4611 35.3844 21.0102 35.3583 20.4808C35.3321 19.9514 34.9269 19.5005 34.3779 19.5005H29.8031C29.2933 19.5005 28.7966 19.9514 28.8228 20.4808C28.8489 21.0102 29.2541 21.4611 29.8031 21.4611Z" fill="#666666"/>
</g>
<g id="Group_9">
<path id="Vector_13" d="M48.1024 29.3039H52.6773C53.187 29.3039 53.6837 28.853 53.6576 28.3236C53.6314 27.7942 53.2262 27.3433 52.6773 27.3433H48.1024C47.5926 27.3433 47.0959 27.7942 47.1221 28.3236C47.1482 28.853 47.5534 29.3039 48.1024 29.3039Z" fill="#666666"/>
<path id="Vector_14" d="M38.9527 29.3039H43.5276C44.0374 29.3039 44.5341 28.853 44.5079 28.3236C44.4818 27.7942 44.0766 27.3433 43.5276 27.3433H38.9527C38.443 27.3433 37.9463 27.7942 37.9724 28.3236C37.9986 28.853 38.4038 29.3039 38.9527 29.3039Z" fill="#666666"/>
<path id="Vector_15" d="M29.8031 29.3039H34.3779C34.8877 29.3039 35.3844 28.853 35.3583 28.3236C35.3321 27.7942 34.9269 27.3433 34.3779 27.3433H29.8031C29.2933 27.3433 28.7966 27.7942 28.8228 28.3236C28.8489 28.853 29.2541 29.3039 29.8031 29.3039Z" fill="#666666"/>
</g>
<g id="Group_10">
<path id="Vector_16" d="M48.1024 37.1467H52.6773C53.187 37.1467 53.6837 36.6957 53.6576 36.1664C53.6314 35.637 53.2262 35.186 52.6773 35.186H48.1024C47.5926 35.186 47.0959 35.637 47.1221 36.1664C47.1482 36.6957 47.5534 37.1467 48.1024 37.1467Z" fill="#666666"/>
<path id="Vector_17" d="M38.9527 37.1467H43.5276C44.0374 37.1467 44.5341 36.6957 44.5079 36.1664C44.4818 35.637 44.0766 35.186 43.5276 35.186H38.9527C38.443 35.186 37.9463 35.637 37.9724 36.1664C37.9986 36.6957 38.4038 37.1467 38.9527 37.1467Z" fill="#666666"/>
<path id="Vector_18" d="M29.8031 37.1467H34.3779C34.8877 37.1467 35.3844 36.6957 35.3583 36.1664C35.3321 35.637 34.9269 35.186 34.3779 35.186H29.8031C29.2933 35.186 28.7966 35.637 28.8228 36.1664C28.8489 36.6957 29.2541 37.1467 29.8031 37.1467Z" fill="#666666"/>
</g>
<g id="Group_11">
<path id="Vector_19" d="M48.1024 44.9885H52.6773C53.187 44.9885 53.6837 44.5375 53.6576 44.0082C53.6314 43.4788 53.2262 43.0278 52.6773 43.0278H48.1024C47.5926 43.0278 47.0959 43.4788 47.1221 44.0082C47.1482 44.5375 47.5534 44.9885 48.1024 44.9885Z" fill="#666666"/>
<path id="Vector_20" d="M38.9527 44.9885H43.5276C44.0374 44.9885 44.5341 44.5375 44.5079 44.0082C44.4818 43.4788 44.0766 43.0278 43.5276 43.0278H38.9527C38.443 43.0278 37.9463 43.4788 37.9724 44.0082C37.9986 44.5375 38.4038 44.9885 38.9527 44.9885Z" fill="#666666"/>
<path id="Vector_21" d="M29.8031 44.9885H34.3779C34.8877 44.9885 35.3844 44.5375 35.3583 44.0082C35.3321 43.4788 34.9269 43.0278 34.3779 43.0278H29.8031C29.2933 43.0278 28.7966 43.4788 28.8228 44.0082C28.8489 44.5375 29.2541 44.9885 29.8031 44.9885Z" fill="#666666"/>
</g>
</g>
</g>
<path id="Vector_22" d="M0.739816 63.9441H72.2068C75.5034 63.9441 78.8256 64.0699 82.1222 63.9441C82.1682 63.9441 82.2142 63.9441 82.2602 63.9441C83.2466 63.9441 83.2466 62.0559 82.2602 62.0559H10.7931C7.49655 62.0559 4.17441 61.9301 0.877814 62.0559C0.831815 62.0559 0.785815 62.0559 0.739816 62.0559C-0.246605 62.0559 -0.246605 63.9441 0.739816 63.9441Z" fill="#666666"/>
<path id="Vector_23" d="M61.5 62.4127V10.2921C61.5 7.88704 61.6046 5.44929 61.5 3.04423C61.5 3.01156 61.5 2.97234 61.5 2.93967C61.5 1.67831 59.5394 1.67831 59.5394 2.93967V55.0537C59.5394 57.4588 59.4348 59.8965 59.5394 62.3016C59.5394 62.3342 59.5394 62.3734 59.5394 62.4061C59.5394 63.6675 61.5 63.6675 61.5 62.4061V62.4127Z" fill="#666666"/>
<path id="Vector_24" d="M22.9406 62.4124V13.3962C22.9406 12.1349 20.98 12.1349 20.98 13.3962V62.4124C20.98 63.6738 22.9406 63.6738 22.9406 62.4124Z" fill="#666666"/>
<path id="Vector_25" d="M14.7059 16.3047C20.7447 14.6839 26.777 13.0631 32.8158 11.4488C42.436 8.86728 52.0563 6.28576 61.6765 3.70424C63.8855 3.10951 66.088 2.52131 68.297 1.92658C69.5126 1.59981 68.9963 -0.288948 67.7741 0.0378267C61.7353 1.65863 55.7031 3.27943 49.6643 4.8937C40.044 7.47522 30.4238 10.0567 20.8035 12.6383C18.5945 13.233 16.3921 13.8212 14.1831 14.4159C12.9675 14.7427 13.4838 16.6314 14.7059 16.3047Z" fill="#666666"/>
</g>
</svg>
