<svg width="22" height="22" viewBox="0 0 22 22" fill="none" xmlns="http://www.w3.org/2000/svg">
<g id="ion:logo-google-playstore">
<path id="Vector" d="M2.0625 2.55621V19.4429C2.06261 19.4796 2.07354 19.5154 2.09391 19.5458C2.11428 19.5763 2.14319 19.6 2.17701 19.6141C2.21083 19.6282 2.24806 19.632 2.28402 19.625C2.31999 19.618 2.35309 19.6006 2.37918 19.5748L11.1719 11L2.37918 2.4243C2.35309 2.39857 2.31999 2.38113 2.28402 2.37414C2.24806 2.36716 2.21083 2.37095 2.17701 2.38503C2.14319 2.39912 2.11428 2.42288 2.09391 2.45333C2.07354 2.48378 2.06261 2.51957 2.0625 2.55621Z" fill="#484848"/>
<path id="Vector_2" d="M14.8586 7.47656L3.83371 1.4025L3.82683 1.39863C3.63691 1.29551 3.45644 1.55246 3.61199 1.70199L12.2543 9.96574L14.8586 7.47656Z" fill="#484848"/>
<path id="Vector_3" d="M3.61286 20.298C3.45645 20.4475 3.63692 20.7045 3.8277 20.6014L3.83458 20.5975L14.8586 14.5234L12.2543 12.0334L3.61286 20.298Z" fill="#484848"/>
<path id="Vector_4" d="M19.3093 9.92578L16.2306 8.23023L13.3358 11L16.2306 13.7685L19.3093 12.0742C20.1468 11.6114 20.1468 10.3886 19.3093 9.92578Z" fill="#484848"/>
</g>
</svg>
