<svg width="26" height="25" viewBox="0 0 26 25" fill="none" xmlns="http://www.w3.org/2000/svg">
<g id="kitchen">
<g id="kitchen_2">
<path id="Vector" d="M2.00003 2L22 21C22.3866 21.356 23 21.4966 23 22C23 22.5034 22.3866 22.644 22 23V23C21.6134 23.3558 21.5467 24 21 24C20.4534 24 19.3867 23.3558 19 23L15 19C14.6743 18.6955 14.0004 18.4274 14 18V17C14.0001 16.7842 14.0904 17.1991 14 17C13.9097 16.8009 13.1668 16.1516 13 16V16C12.7819 15.8147 12.288 15.0662 12 15C11.7121 14.9338 11.2872 14.9308 11 15V15C10.5472 15.1088 10.4517 15.1128 10 15C9.5484 14.8872 9.33102 15.3046 9.00003 15L4.00003 10C1.1976 7.41946 0.0231768 3.80302 2.00003 2Z" stroke="#484848" stroke-width="1.5" stroke-linejoin="round"/>
<path id="Vector_2" d="M21 1L17 5C16.6815 5.29716 16.1723 5.61171 16 6C15.8277 6.38829 16 6.57971 16 7V8C16 8.10512 16.0431 7.90288 16 8C15.9569 8.09712 16.0797 7.92569 16 8L15 9" stroke="#484848" stroke-width="1.5" stroke-linecap="round" stroke-linejoin="round"/>
<path id="Vector_3" d="M16 11L17 10C17.0836 9.92033 16.8907 10.0431 17 10C17.1093 9.95689 16.8817 9.99998 17 10H18C18.4728 10 18.5632 10.1723 19 10C19.4368 9.82765 20.6657 9.31845 21 9L25 5" stroke="#484848" stroke-width="1.5" stroke-linecap="round" stroke-linejoin="round"/>
<path id="Vector_4" d="M22 3L18 7" stroke="#484848" stroke-width="1.5" stroke-linecap="round" stroke-linejoin="round"/>
</g>
<path id="Vector_5" d="M10 18L5 23C4.59813 23.3947 3.56824 24 3 24C2.43176 24 2.40187 23.3947 2 23V23C1.59826 22.6052 1 22.5583 1 22C1 21.4417 1.59826 20.3948 2 20L6 16" stroke="#484848" stroke-width="1.5" stroke-linecap="round" stroke-linejoin="round"/>
</g>
</svg>
