<svg width="28" height="28" viewBox="0 0 28 28" fill="none" xmlns="http://www.w3.org/2000/svg">
<g id="ph:paper-plane">
<path id="Vector" d="M6.21578 25.3658L23.9208 15.451C24.181 15.3053 24.3976 15.0929 24.5483 14.8357C24.6991 14.5785 24.7786 14.2857 24.7786 13.9876C24.7786 13.6895 24.6991 13.3967 24.5483 13.1395C24.3976 12.8823 24.181 12.6699 23.9208 12.5242L6.21578 2.60931C5.91787 2.44246 5.57613 2.37052 5.23624 2.4031C4.89635 2.43568 4.5745 2.57123 4.31371 2.79163C4.05293 3.01203 3.86563 3.30679 3.77685 3.63649C3.68808 3.9662 3.70206 4.31515 3.81692 4.6367L7.15641 13.9875L3.81692 23.3385C3.75118 23.5216 3.71746 23.7147 3.71724 23.9092C3.7189 24.2012 3.79665 24.4877 3.94283 24.7404C4.089 24.9932 4.29854 25.2034 4.55078 25.3505C4.80302 25.4975 5.08924 25.5763 5.3812 25.579C5.67316 25.5817 5.96078 25.5082 6.21567 25.3658L6.21578 25.3658ZM8.6379 14.8261L14.7553 14.8261C14.9777 14.8261 15.191 14.7378 15.3482 14.5805C15.5055 14.4233 15.5938 14.21 15.5938 13.9876C15.5938 13.7652 15.5055 13.5519 15.3482 13.3947C15.191 13.2374 14.9777 13.149 14.7553 13.149L8.6379 13.149L5.39715 4.07309L23.1016 13.9876L5.39663 23.9017L8.6379 14.8261Z" fill="white"/>
</g>
</svg>
