<svg width="24" height="24" viewBox="0 0 24 24" fill="none" xmlns="http://www.w3.org/2000/svg">
<g id="Icon/star">
<g id="Group 8">
<path id="Vector" d="M11.1033 3.81663C11.4701 3.07346 12.5299 3.07346 12.8967 3.81663L15.0168 8.11163C15.1623 8.40648 15.4435 8.61094 15.7688 8.6585L20.5115 9.3517C21.3314 9.47154 21.6581 10.4794 21.0646 11.0575L17.6344 14.3985C17.3985 14.6283 17.2909 14.9594 17.3465 15.2839L18.1558 20.0026C18.296 20.8196 17.4384 21.4426 16.7048 21.0567L12.4654 18.8273C12.1741 18.6741 11.8259 18.6741 11.5345 18.8273L7.2952 21.0567C6.56157 21.4426 5.70402 20.8196 5.84414 20.0026L6.65345 15.2839C6.70911 14.9594 6.60145 14.6283 6.36558 14.3985L2.93542 11.0575C2.34183 10.4794 2.66861 9.47154 3.48852 9.3517L8.23114 8.6585C8.5565 8.61094 8.83768 8.40648 8.98322 8.11163L11.1033 3.81663Z" fill="#858585"/>
</g>
</g>
</svg>
