<svg width="30" height="22" viewBox="0 0 30 22" fill="none" xmlns="http://www.w3.org/2000/svg">
<g id="tv">
<g id="Vector">
<path d="M5 20.4635C4.82418 20.6276 5 20.2314 5 20.4635C5.17582 20.2994 5.75136 19.4635 6 19.4635H24C24.2486 19.4635 24.8242 20.2994 25 20.4635C25 20.2314 25.1758 20.6276 25 20.4635C25 20.6956 25.1758 21.2994 25 21.4635C24.8242 21.6276 24.2486 21.4635 24 21.4635H6C5.75136 21.4635 5.17582 21.6276 5 21.4635C4.82418 21.2994 5 20.6956 5 20.4635ZM26 2.4635C26.3503 2.48576 26.6841 2.32047 27 2.4635C27.2275 2.56234 27.8567 2.27122 28 2.4635C28.1256 2.6385 28 3.89475 28 4.4635V14.4635C27.976 14.7905 28.1531 15.1686 28 15.4635C27.894 15.6758 27.206 15.3297 27 15.4635C26.8125 15.5808 26.6094 16.4635 26 16.4635H4C3.6497 16.4411 3.31601 15.6064 3 15.4635C2.77251 15.3646 2.14339 15.6557 2 15.4635C1.87437 15.2885 2 15.0323 2 14.4635V4.4635V3.4635C1.84675 3.75838 2.02385 3.13652 2 3.4635C2.10597 3.25118 2.79404 2.59733 3 2.4635C3.1875 2.34625 3.39062 2.4635 4 2.4635H26ZM26 0.463501H4C0.25 0.463501 0 4.4635 0 4.4635V14.4635C0 17.9635 4 18.4635 4 18.4635H26C29.75 18.4635 30 14.4635 30 14.4635V4.4635C30 0.963501 26 0.463501 26 0.463501Z" fill="#484848"/>
</g>
</g>
</svg>
