<svg width="27" height="22" viewBox="0 0 27 22" fill="none" xmlns="http://www.w3.org/2000/svg">
<path id="twitter icon" d="M27 2.6096C26.0071 3.05059 24.9405 3.34856 23.8191 3.48324C24.9761 2.78933 25.8417 1.69719 26.2544 0.410618C25.1674 1.05779 23.9777 1.51332 22.737 1.75742C21.9027 0.864556 20.7977 0.272751 19.5934 0.0738863C18.3891 -0.124978 17.1531 0.080224 16.0771 0.657635C15.0011 1.23505 14.1454 2.15236 13.6429 3.26716C13.1403 4.38195 13.019 5.63186 13.2979 6.82283C11.0952 6.71198 8.9405 6.13817 6.97346 5.13862C5.00643 4.13907 3.27106 2.73613 1.87999 1.02085C1.40434 1.84324 1.13085 2.79672 1.13085 3.81219C1.13032 4.72634 1.35491 5.62649 1.78471 6.43277C2.21451 7.23906 2.83623 7.92654 3.59469 8.43423C2.71507 8.40617 1.85487 8.16795 1.08566 7.73937V7.81088C1.08557 9.09302 1.52805 10.3357 2.33801 11.3281C3.14798 12.3204 4.27554 13.0014 5.52938 13.2553C4.71339 13.4767 3.85788 13.5093 3.02748 13.3507C3.38124 14.4539 4.07033 15.4186 4.99828 16.1097C5.92623 16.8009 7.04659 17.1839 8.2025 17.2051C6.24027 18.7491 3.81692 19.5866 1.32229 19.5829C0.880397 19.583 0.438873 19.5571 0 19.5054C2.53219 21.1373 5.47984 22.0034 8.49027 22C18.681 22 24.252 13.5402 24.252 6.20306C24.252 5.96469 24.246 5.72393 24.2353 5.48556C25.3189 4.7001 26.2543 3.72744 26.9976 2.61318L27 2.6096Z" fill="#F3F3F3"/>
</svg>
