<svg width="26" height="26" viewBox="0 0 26 26" fill="none" xmlns="http://www.w3.org/2000/svg">
<g id="laundry 1">
<g id="Vector">
<path d="M23 0H3C1.73283 0 1 0.759232 1 2V24C1 25.2408 1.73283 26 3 26H23C24.2672 26 25 25.2408 25 24V2C25 0.759232 24.2672 0 23 0ZM3 2C2.57761 2 3 1.58641 3 2H23C23 1.58641 23.4224 2 23 2V5H3V2ZM23 24C23 24.4136 23.4224 24 23 24H3C2.57761 24 3 24.4136 3 24V7H23V24Z" fill="#484848"/>
</g>
<g id="Vector_2">
<path d="M18 3H17C16.5858 3 16 3.44777 16 4C16 4.55223 16.5858 5 17 5H18C18.4142 5 19 4.55223 19 4C19 3.44777 18.4142 3 18 3Z" fill="#484848"/>
</g>
<g id="Vector_3">
<path d="M22 3H21C20.5857 3 20 3.44777 20 4C20 4.55223 20.5857 5 21 5H22C22.4143 5 23 4.55223 23 4C23 3.44777 22.4143 3 22 3Z" fill="#484848"/>
</g>
<g id="Vector_4">
<path d="M6.0001 16C6.0001 20.1355 8.86456 23 13.0001 23C17.1358 23 21.0001 20.1355 21.0001 16C21.0001 15.7987 21.0157 15.1972 21.0001 15C21.0001 14.999 21.0001 15.0008 21.0001 15C20.6929 11.1444 16.9335 8 13.0001 8C9.0669 8 6.30729 11.1444 6.0001 15C5.99989 15.0008 6.0001 14.999 6.0001 15C5.9845 15.1972 6.0001 15.7987 6.0001 16ZM13.0001 21C9.85345 21 8.20489 19.0955 8.0001 16C7.8308 15.896 8.16754 16.0689 8.0001 16C8.45771 16.2817 8.94 17 10.0001 17C11.0602 17 11.5423 16.2817 12.0001 16C12.3795 15.7665 12.3791 16 13.0001 16C13.6211 16 14.6207 15.7665 15.0001 16C15.4579 16.2815 15.94 17 17.0001 17C18.0602 17 18.5423 16.2817 19.0001 16C18.8329 16.0689 19.1694 15.8958 19.0001 16C18.7955 19.0955 16.1469 21 13.0001 21ZM13.0001 10C15.8709 10 18.4454 11.2907 19.0001 14C18.4758 14.1244 18.3077 14.8108 18.0001 15C17.6207 15.2335 17.6211 15 17.0001 15C16.3791 15 16.3795 15.2335 16.0001 15C15.5423 14.7183 14.0604 14 13.0001 14C11.94 14 11.4579 14.7183 11.0001 15C10.6207 15.2335 10.6208 15 10.0001 15C9.37914 15 9.37952 15.2335 9.0001 15C8.69249 14.8106 8.5244 14.1241 8.0001 14C8.55477 11.2907 10.1295 10 13.0001 10Z" fill="#484848"/>
</g>
</g>
</svg>
