<svg width="30" height="20" viewBox="0 0 30 20" fill="none" xmlns="http://www.w3.org/2000/svg">
<g id="wifi">
<g id="Vector">
<path d="M28.9999 6.96293C29.0934 6.87316 28.953 6.08315 28.9999 5.96293C29.0082 6.09152 29.0468 5.84271 28.9999 5.96293C28.9916 5.83434 29.0619 6.07627 28.9999 5.96293C28.9379 5.84958 29.1042 5.04021 28.9999 4.96293C25.0368 2.11354 19.8997 0.955424 14.9999 0.962927C9.90469 0.962927 4.82921 2.21106 0.999899 4.96293C0.895513 5.04007 1.06204 5.84965 0.999899 5.96293C0.937758 6.0762 1.00838 5.83433 0.999899 5.96293C0.953162 5.84263 0.991418 6.09152 0.999899 5.96293C1.04664 6.08322 0.906529 6.87303 0.999899 6.96293C1.16236 7.12116 1.77251 6.9461 1.9999 6.96293C2.22729 6.97976 2.81543 7.09548 2.9999 6.96293C6.63429 4.36913 10.5179 2.95614 14.9999 2.96293C19.6601 2.96293 23.4885 4.45923 26.9999 6.96293C27.381 7.23499 28.669 7.29197 28.9999 6.96293Z" fill="#484848"/>
</g>
<g id="Vector_2">
<path d="M24.9998 9.96291C24.953 10.0824 25.0956 9.87428 24.9998 9.96291C25.0466 9.84342 25.011 9.09009 24.9998 8.96291C24.9886 8.83572 25.0669 9.07315 24.9998 8.96291C24.9327 8.85266 25.1098 9.03485 24.9998 8.96291C22.1401 7.18235 18.4098 5.95757 14.9998 5.96291C11.4569 5.96291 7.76347 7.24084 4.9998 8.96291C4.88923 9.03443 5.06731 8.85264 4.9998 8.96291C4.93228 9.07317 5.01104 8.83551 4.9998 8.96291C4.98856 9.09031 4.95256 9.84334 4.9998 9.96291C4.90333 9.87461 5.04704 10.0825 4.9998 9.96291C5.15826 10.1112 5.77946 9.94185 5.9998 9.96291C5.81392 10.0782 6.22013 9.98396 5.9998 9.96291C8.54034 8.40317 11.9828 7.9581 14.9998 7.96291C18.0161 7.95844 21.4598 8.4035 23.9998 9.96291C24.3829 10.1982 24.678 10.2713 24.9998 9.96291ZM20.9998 13.9629C21.4201 13.56 20.5298 13.2214 19.9998 12.9629C18.3027 12.1351 16.904 10.96 14.9998 10.9629C13.0284 10.9629 11.6439 12.1607 9.9998 12.9629C9.46975 13.2214 8.57948 13.56 8.9998 13.9629C9.29737 14.2481 10.6204 14.1412 10.9998 13.9629C12.4007 13.3048 13.4397 12.9604 14.9998 12.9629C16.6141 12.9629 18.6421 13.3229 19.9998 13.9629C20.3773 14.1412 20.7022 14.2499 20.9998 13.9629ZM16.9998 16.9629C17.3643 16.6135 17.4424 16.2125 16.9998 15.9629C16.426 15.6355 15.6675 15.9622 14.9998 15.9629C14.3321 15.9622 13.5736 15.6355 12.9998 15.9629C12.5572 16.2125 12.6353 16.6135 12.9998 16.9629L13.9998 18.9629C14.1742 19.13 14.7532 18.9629 14.9998 18.9629C15.2464 18.9629 15.8254 19.13 15.9998 18.9629L16.9998 16.9629Z" fill="#484848"/>
</g>
</g>
</svg>
