<svg width="377" height="232" viewBox="0 0 377 232" fill="none" xmlns="http://www.w3.org/2000/svg">
<path d="M294.459 88.038C286.103 105.005 273.928 120.713 260.926 134.386C248.35 147.609 232.412 158.689 213.556 159.178C208.63 159.306 203.769 158.541 199.27 156.972C208.969 150.048 217.069 140.793 219.614 128.986C222.595 115.158 214.044 103.639 199.798 103.458C186.717 103.291 176.235 112.608 175.756 125.833C175.26 139.515 184.216 151.918 196.546 157.087C187.487 163.124 176.976 167.241 166.773 170.332C152.345 174.704 136.068 177.135 121.306 172.954C113.995 170.883 107.288 166.981 102.294 161.2C95.8891 153.787 92.9665 144.224 89.6211 135.208C86.509 126.819 82.8732 118.533 76.3142 112.236C70.5765 106.727 63.2838 102.974 55.6488 100.88C37.0996 95.7924 17.6853 100.736 0.331772 107.735C-0.11427 107.915 0.171421 108.59 0.619713 108.423C21.0879 100.775 44.366 95.047 64.983 105.486C75.3782 110.75 81.9933 119.342 86.3102 130.004C90.101 139.368 92.4704 149.471 98.0338 158.027C116.83 186.933 160.143 177.005 185.914 164.763C190.073 162.788 194.243 160.436 198.188 157.721C198.452 157.815 198.715 157.913 198.982 158.001C217.99 164.277 238.086 155.747 252.525 143.387C261.457 135.742 269.027 126.606 276.227 117.356C283.348 108.208 289.793 98.6676 294.654 88.1201C294.712 87.9941 294.519 87.9174 294.459 88.038ZM176.938 130.835C174.683 114.857 187.512 102.003 203.541 104.737C211.248 106.053 217.523 111.353 218.783 119.291C220.27 128.666 215.714 138.097 209.92 145.186C206.386 149.509 202.202 153.184 197.626 156.354C186.986 152.086 178.68 143.181 176.938 130.835Z" fill="#1D1D1B"/>
<path d="M304.382 94.456C300.86 92.71 297.35 90.945 293.863 89.1419C291.116 95.6379 287.795 101.859 284.028 107.822C290.327 102.722 297.313 98.3665 304.382 94.456ZM292.604 88.0938C292.86 87.5078 293.552 87.4995 293.924 87.8128C316.181 70.9647 339.504 55.374 362.41 39.3976C348.877 46.1437 334.946 52.2136 321.107 58.2393C305.807 64.8985 290.387 71.7305 274.542 76.9732C278.432 86.8655 280.704 97.3425 282.071 107.874C286.09 101.545 289.535 94.9608 292.604 88.0938ZM253.244 66.6795C260.277 69.6594 267.191 73.1132 273.985 76.5794C274.046 76.5631 274.096 76.5558 274.156 76.5597C274.18 76.4914 274.213 76.4333 274.296 76.3981C289.832 69.4728 305.793 63.4755 321.392 56.6742C335.612 50.4812 349.544 43.7298 363.611 37.2559C345.795 41.4483 328.036 45.8748 310.348 50.6063C291.265 55.7136 272.4 61.8762 253.244 66.6795ZM365.018 39.1644C341.712 55.6279 318.661 72.6878 294.757 88.2641C303.862 91.7897 312.702 96.3517 321.242 101.086C321.387 100.845 321.542 100.614 321.696 100.383C321.371 100.112 321.198 99.6716 321.495 99.2286C335.107 78.5605 349.632 58.5306 365.018 39.1644ZM251.632 66.001C270.315 59.2259 289.885 54.3577 309.061 49.1963C329.052 43.8132 349.142 38.7861 369.302 34.0941C370.013 33.9266 370.71 34.8403 370.222 35.4524C353.595 56.1065 337.955 77.5119 323.362 99.6513C323.333 100.621 322.86 101.665 322.055 102.217C321.897 102.678 321.333 103.054 320.76 102.759C315.876 100.18 310.936 97.7279 305.995 95.2649C297.734 99.8449 290.051 105.131 282.291 110.512C282.27 110.541 282.248 110.57 282.225 110.608C281.872 111.147 280.857 111.037 280.77 110.319C279.485 99.2719 276.934 88.6082 273.974 77.9102C273.893 77.9152 273.803 77.9098 273.716 77.8651C266.407 74.4774 259.007 70.9549 251.982 67.0038C251.818 67.0439 251.666 67.0851 251.513 67.1163C250.995 67.2452 250.69 66.4854 251.087 66.2185C251.138 66.0314 251.318 65.8714 251.534 65.9553C251.564 65.9768 251.603 65.9895 251.632 66.001Z" fill="#1D1D1B"/>
</svg>
